<?xml version="1.0" encoding="UTF-8" standalone="no"?>
<!DOCTYPE svg PUBLIC "-//W3C//DTD SVG 1.1//EN"
 "http://www.w3.org/Graphics/SVG/1.1/DTD/svg11.dtd">
<!-- Generated by graphviz version 2.43.0 (0)
 -->
<!-- Title: pipeline_dag_nanopore_medaka2 Pages: 1 -->
<svg width="1866pt" height="1065pt"
 viewBox="0.00 0.00 1866.48 1064.60" xmlns="http://www.w3.org/2000/svg" xmlns:xlink="http://www.w3.org/1999/xlink">
<g id="graph0" class="graph" transform="scale(1 1) rotate(0) translate(4 1060.6)">
<title>pipeline_dag_nanopore_medaka2</title>
<polygon fill="white" stroke="transparent" points="-4,4 -4,-1060.6 1862.48,-1060.6 1862.48,4 -4,4"/>
<!-- p0 -->
<g id="node1" class="node">
<title>p0</title>
<ellipse fill="black" stroke="black" cx="848.8" cy="-1038" rx="3.6" ry="3.6"/>
<text text-anchor="middle" x="795.2" y="-1045.4" font-family="Times,serif" font-size="14.00">Channel.fromPath</text>
</g>
<!-- p1 -->
<g id="node2" class="node">
<title>p1</title>
<ellipse fill="none" stroke="black" cx="848.8" cy="-979.5" rx="3.5" ry="3.5"/>
<text text-anchor="middle" x="831.8" y="-986.8" font-family="Times,serif" font-size="14.00">filter</text>
</g>
<!-- p0&#45;&gt;p1 -->
<g id="edge1" class="edge">
<title>p0&#45;&gt;p1</title>
<path fill="none" stroke="black" d="M848.8,-1034.27C848.8,-1026.99 848.8,-1006.71 848.8,-993.25"/>
<polygon fill="black" stroke="black" points="852.3,-993.07 848.8,-983.07 845.3,-993.07 852.3,-993.07"/>
</g>
<!-- p2 -->
<g id="node3" class="node">
<title>p2</title>
<ellipse fill="none" stroke="black" cx="848.8" cy="-935.5" rx="3.5" ry="3.5"/>
<text text-anchor="middle" x="831.8" y="-942.8" font-family="Times,serif" font-size="14.00">filter</text>
</g>
<!-- p1&#45;&gt;p2 -->
<g id="edge2" class="edge">
<title>p1&#45;&gt;p2</title>
<path fill="none" stroke="black" d="M848.8,-975.74C848.8,-970.47 848.8,-958.63 848.8,-949.32"/>
<polygon fill="black" stroke="black" points="852.3,-949.32 848.8,-939.32 845.3,-949.32 852.3,-949.32"/>
</g>
<!-- p7 -->
<g id="node4" class="node">
<title>p7</title>
<ellipse fill="none" stroke="black" cx="721.8" cy="-863" rx="232.06" ry="18"/>
<text text-anchor="middle" x="721.8" y="-859.3" font-family="Times,serif" font-size="14.00">articNcovNanopore:sequenceAnalysisMedaka:fastqcNanopore</text>
</g>
<!-- p2&#45;&gt;p7 -->
<g id="edge3" class="edge">
<title>p2&#45;&gt;p7</title>
<path fill="none" stroke="black" d="M846.15,-933.03C835.31,-927.01 793.41,-903.75 761.21,-885.88"/>
<polygon fill="black" stroke="black" points="762.86,-882.79 752.42,-881 759.46,-888.91 762.86,-882.79"/>
<text text-anchor="middle" x="857.3" y="-902.8" font-family="Times,serif" font-size="14.00">ch_runFastqDirs</text>
</g>
<!-- p14 -->
<g id="node17" class="node">
<title>p14</title>
<ellipse fill="none" stroke="black" cx="1092.8" cy="-863" rx="3.5" ry="3.5"/>
<text text-anchor="middle" x="1071.8" y="-870.3" font-family="Times,serif" font-size="14.00">flatten</text>
</g>
<!-- p2&#45;&gt;p14 -->
<g id="edge13" class="edge">
<title>p2&#45;&gt;p14</title>
<path fill="none" stroke="black" d="M851.89,-933.61C875.94,-926.66 1033.74,-881.06 1080.05,-867.68"/>
<polygon fill="black" stroke="black" points="1081.15,-871.01 1089.78,-864.87 1079.21,-864.28 1081.15,-871.01"/>
<text text-anchor="middle" x="1016.3" y="-902.8" font-family="Times,serif" font-size="14.00">ch_runFastqDirs</text>
</g>
<!-- p9 -->
<g id="node9" class="node">
<title>p9</title>
<ellipse fill="none" stroke="black" cx="721.8" cy="-790" rx="238.56" ry="18"/>
<text text-anchor="middle" x="721.8" y="-786.3" font-family="Times,serif" font-size="14.00">articNcovNanopore:sequenceAnalysisMedaka:multiqcNanopore</text>
</g>
<!-- p7&#45;&gt;p9 -->
<g id="edge6" class="edge">
<title>p7&#45;&gt;p9</title>
<path fill="none" stroke="black" d="M721.8,-844.81C721.8,-836.79 721.8,-827.05 721.8,-818.07"/>
<polygon fill="black" stroke="black" points="725.3,-818.03 721.8,-808.03 718.3,-818.03 725.3,-818.03"/>
</g>
<!-- p8 -->
<g id="node10" class="node">
<title>p8</title>
<ellipse fill="black" stroke="black" cx="463.8" cy="-790" rx="1.8" ry="1.8"/>
</g>
<!-- p7&#45;&gt;p8 -->
<g id="edge7" class="edge">
<title>p7&#45;&gt;p8</title>
<path fill="none" stroke="black" d="M569.86,-849.38C535.97,-841.21 501.82,-828.29 473.8,-808 471.37,-806.24 469.43,-803.69 467.93,-801.09"/>
<polygon fill="black" stroke="black" points="471.12,-799.66 464.02,-791.8 464.67,-802.37 471.12,-799.66"/>
</g>
<!-- p3 -->
<g id="node5" class="node">
<title>p3</title>
<ellipse fill="none" stroke="black" cx="1076.8" cy="-1038" rx="206.06" ry="18"/>
<text text-anchor="middle" x="1076.8" y="-1034.3" font-family="Times,serif" font-size="14.00">articNcovNanopore:sequenceAnalysisMedaka:versions</text>
</g>
<!-- p4 -->
<g id="node6" class="node">
<title>p4</title>
<ellipse fill="black" stroke="black" cx="1076.8" cy="-979.5" rx="1.8" ry="1.8"/>
</g>
<!-- p3&#45;&gt;p4 -->
<g id="edge4" class="edge">
<title>p3&#45;&gt;p4</title>
<path fill="none" stroke="black" d="M1076.8,-1019.74C1076.8,-1010.65 1076.8,-999.77 1076.8,-991.77"/>
<polygon fill="black" stroke="black" points="1080.3,-991.5 1076.8,-981.5 1073.3,-991.5 1080.3,-991.5"/>
</g>
<!-- p5 -->
<g id="node7" class="node">
<title>p5</title>
<ellipse fill="none" stroke="black" cx="1528.8" cy="-1038" rx="227.46" ry="18"/>
<text text-anchor="middle" x="1528.8" y="-1034.3" font-family="Times,serif" font-size="14.00">articNcovNanopore:sequenceAnalysisMedaka:pangoversions</text>
</g>
<!-- p6 -->
<g id="node8" class="node">
<title>p6</title>
<ellipse fill="black" stroke="black" cx="1528.8" cy="-979.5" rx="1.8" ry="1.8"/>
</g>
<!-- p5&#45;&gt;p6 -->
<g id="edge5" class="edge">
<title>p5&#45;&gt;p6</title>
<path fill="none" stroke="black" d="M1528.8,-1019.74C1528.8,-1010.65 1528.8,-999.77 1528.8,-991.77"/>
<polygon fill="black" stroke="black" points="1532.3,-991.5 1528.8,-981.5 1525.3,-991.5 1532.3,-991.5"/>
</g>
<!-- p11 -->
<g id="node11" class="node">
<title>p11</title>
<ellipse fill="black" stroke="black" cx="733.8" cy="-717" rx="1.8" ry="1.8"/>
</g>
<!-- p9&#45;&gt;p11 -->
<g id="edge8" class="edge">
<title>p9&#45;&gt;p11</title>
<path fill="none" stroke="black" d="M724.7,-771.81C726.97,-758.42 730.04,-740.25 731.97,-728.82"/>
<polygon fill="black" stroke="black" points="735.44,-729.27 733.66,-718.83 728.54,-728.1 735.44,-729.27"/>
</g>
<!-- p10 -->
<g id="node12" class="node">
<title>p10</title>
<ellipse fill="black" stroke="black" cx="708.8" cy="-717" rx="1.8" ry="1.8"/>
</g>
<!-- p9&#45;&gt;p10 -->
<g id="edge9" class="edge">
<title>p9&#45;&gt;p10</title>
<path fill="none" stroke="black" d="M718.65,-771.81C716.2,-758.42 712.87,-740.25 710.78,-728.82"/>
<polygon fill="black" stroke="black" points="714.2,-728.03 708.95,-718.83 707.31,-729.29 714.2,-728.03"/>
</g>
<!-- p12 -->
<g id="node13" class="node">
<title>p12</title>
<ellipse fill="none" stroke="black" cx="1544.8" cy="-717" rx="256.95" ry="18"/>
<text text-anchor="middle" x="1544.8" y="-713.3" font-family="Times,serif" font-size="14.00">articNcovNanopore:sequenceAnalysisMedaka:articDownloadScheme</text>
</g>
<!-- p27 -->
<g id="node14" class="node">
<title>p27</title>
<ellipse fill="none" stroke="black" cx="1091.8" cy="-454.5" rx="3.5" ry="3.5"/>
<text text-anchor="middle" x="1064.3" y="-461.8" font-family="Times,serif" font-size="14.00">combine</text>
</g>
<!-- p12&#45;&gt;p27 -->
<g id="edge10" class="edge">
<title>p12&#45;&gt;p27</title>
<path fill="none" stroke="black" d="M1580.15,-698.95C1594.07,-689.58 1606.8,-676.39 1606.8,-659.5 1606.8,-659.5 1606.8,-659.5 1606.8,-512 1606.8,-460.03 1186.99,-455.85 1105.43,-455.52"/>
<polygon fill="black" stroke="black" points="1105.37,-452.02 1095.36,-455.5 1105.35,-459.02 1105.37,-452.02"/>
<text text-anchor="middle" x="1665.8" y="-596.3" font-family="Times,serif" font-size="14.00">ch_nanopore_reffasta</text>
</g>
<!-- p13 -->
<g id="node15" class="node">
<title>p13</title>
<ellipse fill="black" stroke="black" cx="1544.8" cy="-658.5" rx="1.8" ry="1.8"/>
</g>
<!-- p12&#45;&gt;p13 -->
<g id="edge11" class="edge">
<title>p12&#45;&gt;p13</title>
<path fill="none" stroke="black" d="M1544.8,-698.74C1544.8,-689.65 1544.8,-678.77 1544.8,-670.77"/>
<polygon fill="black" stroke="black" points="1548.3,-670.5 1544.8,-660.5 1541.3,-670.5 1548.3,-670.5"/>
</g>
<!-- p18 -->
<g id="node16" class="node">
<title>p18</title>
<ellipse fill="none" stroke="black" cx="1222.8" cy="-658.5" rx="3.5" ry="3.5"/>
<text text-anchor="middle" x="1195.3" y="-665.8" font-family="Times,serif" font-size="14.00">combine</text>
</g>
<!-- p12&#45;&gt;p18 -->
<g id="edge12" class="edge">
<title>p12&#45;&gt;p18</title>
<path fill="none" stroke="black" d="M1454.25,-700.11C1377.04,-686.56 1272.91,-668.29 1236.25,-661.86"/>
<polygon fill="black" stroke="black" points="1236.7,-658.39 1226.25,-660.1 1235.49,-665.28 1236.7,-658.39"/>
</g>
<!-- p28 -->
<g id="node30" class="node">
<title>p28</title>
<ellipse fill="none" stroke="black" cx="1091.8" cy="-396" rx="225.56" ry="18"/>
<text text-anchor="middle" x="1091.8" y="-392.3" font-family="Times,serif" font-size="14.00">articNcovNanopore:sequenceAnalysisMedaka:makeQCCSV</text>
</g>
<!-- p27&#45;&gt;p28 -->
<g id="edge28" class="edge">
<title>p27&#45;&gt;p28</title>
<path fill="none" stroke="black" d="M1091.8,-450.77C1091.8,-445.83 1091.8,-434.9 1091.8,-424.17"/>
<polygon fill="black" stroke="black" points="1095.3,-424.15 1091.8,-414.15 1088.3,-424.15 1095.3,-424.15"/>
</g>
<!-- p19 -->
<g id="node21" class="node">
<title>p19</title>
<ellipse fill="none" stroke="black" cx="871.8" cy="-600" rx="251.56" ry="18"/>
<text text-anchor="middle" x="871.8" y="-596.3" font-family="Times,serif" font-size="14.00">articNcovNanopore:sequenceAnalysisMedaka:articMinIONMedaka</text>
</g>
<!-- p18&#45;&gt;p19 -->
<g id="edge18" class="edge">
<title>p18&#45;&gt;p19</title>
<path fill="none" stroke="black" d="M1219.33,-656.94C1197.1,-653.36 1072.82,-633.36 979.17,-618.28"/>
<polygon fill="black" stroke="black" points="979.49,-614.79 969.07,-616.66 978.38,-621.7 979.49,-614.79"/>
</g>
<!-- p15 -->
<g id="node18" class="node">
<title>p15</title>
<ellipse fill="none" stroke="black" cx="1209.8" cy="-790" rx="231.26" ry="18"/>
<text text-anchor="middle" x="1209.8" y="-786.3" font-family="Times,serif" font-size="14.00">articNcovNanopore:sequenceAnalysisMedaka:articGuppyPlex</text>
</g>
<!-- p14&#45;&gt;p15 -->
<g id="edge14" class="edge">
<title>p14&#45;&gt;p15</title>
<path fill="none" stroke="black" d="M1095.69,-860.24C1106.28,-853.82 1143.83,-831.03 1172.99,-813.33"/>
<polygon fill="black" stroke="black" points="1175.01,-816.21 1181.74,-808.03 1171.37,-810.22 1175.01,-816.21"/>
</g>
<!-- p16 -->
<g id="node19" class="node">
<title>p16</title>
<ellipse fill="none" stroke="black" cx="1209.8" cy="-717" rx="3.5" ry="3.5"/>
<text text-anchor="middle" x="1192.8" y="-724.3" font-family="Times,serif" font-size="14.00">filter</text>
</g>
<!-- p15&#45;&gt;p16 -->
<g id="edge15" class="edge">
<title>p15&#45;&gt;p16</title>
<path fill="none" stroke="black" d="M1209.8,-771.81C1209.8,-759.17 1209.8,-742.26 1209.8,-730.79"/>
<polygon fill="black" stroke="black" points="1213.3,-730.68 1209.8,-720.68 1206.3,-730.68 1213.3,-730.68"/>
</g>
<!-- p16&#45;&gt;p18 -->
<g id="edge16" class="edge">
<title>p16&#45;&gt;p18</title>
<path fill="none" stroke="black" d="M1210.43,-713.27C1212.12,-705.92 1216.86,-685.29 1219.96,-671.83"/>
<polygon fill="black" stroke="black" points="1223.38,-672.6 1222.21,-662.07 1216.56,-671.03 1223.38,-672.6"/>
</g>
<!-- p17 -->
<g id="node20" class="node">
<title>p17</title>
<ellipse fill="black" stroke="black" cx="1234.8" cy="-717" rx="3.6" ry="3.6"/>
</g>
<!-- p17&#45;&gt;p18 -->
<g id="edge17" class="edge">
<title>p17&#45;&gt;p18</title>
<path fill="none" stroke="black" d="M1234.22,-713.27C1232.67,-705.99 1228.37,-685.71 1225.51,-672.25"/>
<polygon fill="black" stroke="black" points="1228.85,-671.12 1223.35,-662.07 1222,-672.58 1228.85,-671.12"/>
</g>
<!-- p21 -->
<g id="node22" class="node">
<title>p21</title>
<ellipse fill="black" stroke="black" cx="1.8" cy="-513" rx="1.8" ry="1.8"/>
</g>
<!-- p19&#45;&gt;p21 -->
<g id="edge19" class="edge">
<title>p19&#45;&gt;p21</title>
<path fill="none" stroke="black" d="M649.58,-591.56C413.3,-582.05 66.26,-562.88 12.8,-531 10.05,-529.36 7.86,-526.73 6.19,-524.03"/>
<polygon fill="black" stroke="black" points="9.34,-522.51 2.04,-514.83 2.96,-525.39 9.34,-522.51"/>
</g>
<!-- p25 -->
<g id="node23" class="node">
<title>p25</title>
<ellipse fill="none" stroke="black" cx="1066.8" cy="-513" rx="3.5" ry="3.5"/>
<text text-anchor="middle" x="1052.3" y="-520.3" font-family="Times,serif" font-size="14.00">join</text>
</g>
<!-- p19&#45;&gt;p25 -->
<g id="edge20" class="edge">
<title>p19&#45;&gt;p25</title>
<path fill="none" stroke="black" d="M997.93,-584.32C1022.44,-579.26 1043.44,-572.62 1052.8,-564 1063.01,-554.59 1066,-538.4 1066.77,-527"/>
<polygon fill="black" stroke="black" points="1070.27,-526.84 1066.95,-516.78 1063.27,-526.71 1070.27,-526.84"/>
</g>
<!-- p22 -->
<g id="node24" class="node">
<title>p22</title>
<ellipse fill="none" stroke="black" cx="303.8" cy="-513" rx="282.15" ry="18"/>
<text text-anchor="middle" x="303.8" y="-509.3" font-family="Times,serif" font-size="14.00">articNcovNanopore:sequenceAnalysisMedaka:articRemoveUnmappedReads</text>
</g>
<!-- p19&#45;&gt;p22 -->
<g id="edge21" class="edge">
<title>p19&#45;&gt;p22</title>
<path fill="none" stroke="black" d="M768.61,-583.56C670.02,-568.8 521.68,-546.61 419.22,-531.27"/>
<polygon fill="black" stroke="black" points="419.54,-527.78 409.14,-529.76 418.51,-534.71 419.54,-527.78"/>
</g>
<!-- p44 -->
<g id="node25" class="node">
<title>p44</title>
<ellipse fill="none" stroke="black" cx="813.8" cy="-513" rx="209.86" ry="18"/>
<text text-anchor="middle" x="813.8" y="-509.3" font-family="Times,serif" font-size="14.00">articNcovNanopore:sequenceAnalysisMedaka:nextclade</text>
</g>
<!-- p19&#45;&gt;p44 -->
<g id="edge22" class="edge">
<title>p19&#45;&gt;p44</title>
<path fill="none" stroke="black" d="M860.06,-581.8C851.81,-569.7 840.62,-553.3 831.31,-539.67"/>
<polygon fill="black" stroke="black" points="834.05,-537.46 825.52,-531.18 828.27,-541.41 834.05,-537.46"/>
</g>
<!-- p20 -->
<g id="node26" class="node">
<title>p20</title>
<ellipse fill="black" stroke="black" cx="1043.8" cy="-513" rx="1.8" ry="1.8"/>
</g>
<!-- p19&#45;&gt;p20 -->
<g id="edge23" class="edge">
<title>p19&#45;&gt;p20</title>
<path fill="none" stroke="black" d="M897.1,-581.9C913.96,-571.15 936.96,-557.73 958.8,-549 990.23,-536.44 1005.2,-550.6 1032.8,-531 1035.31,-529.21 1037.4,-526.65 1039.05,-524.06"/>
<polygon fill="black" stroke="black" points="1042.33,-525.32 1043.53,-514.79 1036.03,-522.27 1042.33,-525.32"/>
<text text-anchor="middle" x="1005.8" y="-552.8" font-family="Times,serif" font-size="14.00">ch_nanopore_vcf</text>
</g>
<!-- p46 -->
<g id="node47" class="node">
<title>p46</title>
<ellipse fill="none" stroke="black" cx="1345.8" cy="-513" rx="232.86" ry="18"/>
<text text-anchor="middle" x="1345.8" y="-509.3" font-family="Times,serif" font-size="14.00">articNcovNanopore:sequenceAnalysisMedaka:pangolinTyping</text>
</g>
<!-- p19&#45;&gt;p46 -->
<g id="edge47" class="edge">
<title>p19&#45;&gt;p46</title>
<path fill="none" stroke="black" d="M962.92,-583.2C997.08,-577.23 1036.23,-570.36 1071.8,-564 1131.16,-553.39 1197.72,-541.25 1250.36,-531.59"/>
<polygon fill="black" stroke="black" points="1251.16,-535 1260.36,-529.76 1249.9,-528.12 1251.16,-535"/>
</g>
<!-- p25&#45;&gt;p27 -->
<g id="edge26" class="edge">
<title>p25&#45;&gt;p27</title>
<path fill="none" stroke="black" d="M1067.87,-509.57C1071.05,-502.38 1080.58,-480.86 1086.61,-467.24"/>
<polygon fill="black" stroke="black" points="1089.91,-468.42 1090.76,-457.86 1083.51,-465.58 1089.91,-468.42"/>
</g>
<!-- p23 -->
<g id="node27" class="node">
<title>p23</title>
<ellipse fill="black" stroke="black" cx="303.8" cy="-454.5" rx="1.8" ry="1.8"/>
</g>
<!-- p22&#45;&gt;p23 -->
<g id="edge24" class="edge">
<title>p22&#45;&gt;p23</title>
<path fill="none" stroke="black" d="M303.8,-494.74C303.8,-485.65 303.8,-474.77 303.8,-466.77"/>
<polygon fill="black" stroke="black" points="307.3,-466.5 303.8,-456.5 300.3,-466.5 307.3,-466.5"/>
</g>
<!-- p45 -->
<g id="node46" class="node">
<title>p45</title>
<ellipse fill="black" stroke="black" cx="813.8" cy="-454.5" rx="1.8" ry="1.8"/>
</g>
<!-- p44&#45;&gt;p45 -->
<g id="edge46" class="edge">
<title>p44&#45;&gt;p45</title>
<path fill="none" stroke="black" d="M813.8,-494.74C813.8,-485.65 813.8,-474.77 813.8,-466.77"/>
<polygon fill="black" stroke="black" points="817.3,-466.5 813.8,-456.5 810.3,-466.5 817.3,-466.5"/>
</g>
<!-- p24 -->
<g id="node28" class="node">
<title>p24</title>
<ellipse fill="black" stroke="black" cx="1144.8" cy="-600" rx="3.6" ry="3.6"/>
</g>
<!-- p24&#45;&gt;p25 -->
<g id="edge25" class="edge">
<title>p24&#45;&gt;p25</title>
<path fill="none" stroke="black" d="M1143.24,-596.46C1141.08,-593.04 1136.97,-586.8 1132.8,-582 1111.17,-557.06 1100.43,-555.94 1078.8,-531 1077.24,-529.2 1075.68,-527.2 1074.24,-525.22"/>
<polygon fill="black" stroke="black" points="1076.87,-522.86 1068.36,-516.54 1071.07,-526.78 1076.87,-522.86"/>
</g>
<!-- p26 -->
<g id="node29" class="node">
<title>p26</title>
<ellipse fill="black" stroke="black" cx="1091.8" cy="-513" rx="3.6" ry="3.6"/>
</g>
<!-- p26&#45;&gt;p27 -->
<g id="edge27" class="edge">
<title>p26&#45;&gt;p27</title>
<path fill="none" stroke="black" d="M1091.8,-509.27C1091.8,-501.99 1091.8,-481.71 1091.8,-468.25"/>
<polygon fill="black" stroke="black" points="1095.3,-468.07 1091.8,-458.07 1088.3,-468.07 1095.3,-468.07"/>
</g>
<!-- p30 -->
<g id="node31" class="node">
<title>p30</title>
<ellipse fill="none" stroke="black" cx="1104.8" cy="-337.5" rx="3.5" ry="3.5"/>
<text text-anchor="middle" x="1078.8" y="-344.8" font-family="Times,serif" font-size="14.00">splitCsv</text>
</g>
<!-- p28&#45;&gt;p30 -->
<g id="edge29" class="edge">
<title>p28&#45;&gt;p30</title>
<path fill="none" stroke="black" d="M1095.77,-377.74C1097.77,-369.05 1100.15,-358.72 1101.96,-350.84"/>
<polygon fill="black" stroke="black" points="1105.38,-351.59 1104.21,-341.06 1098.56,-350.02 1105.38,-351.59"/>
</g>
<!-- p29 -->
<g id="node32" class="node">
<title>p29</title>
<ellipse fill="black" stroke="black" cx="1079.8" cy="-337.5" rx="1.8" ry="1.8"/>
</g>
<!-- p28&#45;&gt;p29 -->
<g id="edge30" class="edge">
<title>p28&#45;&gt;p29</title>
<path fill="none" stroke="black" d="M1088.13,-377.74C1086.18,-368.54 1083.83,-357.5 1082.13,-349.47"/>
<polygon fill="black" stroke="black" points="1085.51,-348.56 1080.01,-339.5 1078.67,-350.01 1085.51,-348.56"/>
</g>
<!-- p31 -->
<g id="node33" class="node">
<title>p31</title>
<ellipse fill="none" stroke="black" cx="1104.8" cy="-293.5" rx="3.5" ry="3.5"/>
<text text-anchor="middle" x="1082.8" y="-300.8" font-family="Times,serif" font-size="14.00">unique</text>
</g>
<!-- p30&#45;&gt;p31 -->
<g id="edge31" class="edge">
<title>p30&#45;&gt;p31</title>
<path fill="none" stroke="black" d="M1104.8,-333.74C1104.8,-328.47 1104.8,-316.63 1104.8,-307.32"/>
<polygon fill="black" stroke="black" points="1108.3,-307.32 1104.8,-297.32 1101.3,-307.32 1108.3,-307.32"/>
</g>
<!-- p32 -->
<g id="node34" class="node">
<title>p32</title>
<ellipse fill="none" stroke="black" cx="1104.8" cy="-249.5" rx="3.5" ry="3.5"/>
<text text-anchor="middle" x="1082.8" y="-256.8" font-family="Times,serif" font-size="14.00">branch</text>
</g>
<!-- p31&#45;&gt;p32 -->
<g id="edge32" class="edge">
<title>p31&#45;&gt;p32</title>
<path fill="none" stroke="black" d="M1104.8,-289.74C1104.8,-284.47 1104.8,-272.63 1104.8,-263.32"/>
<polygon fill="black" stroke="black" points="1108.3,-263.32 1104.8,-253.32 1101.3,-263.32 1108.3,-263.32"/>
</g>
<!-- p34 -->
<g id="node35" class="node">
<title>p34</title>
<ellipse fill="none" stroke="black" cx="1070.8" cy="-161.2" rx="3.5" ry="3.5"/>
<text text-anchor="middle" x="1049.3" y="-168.5" font-family="Times,serif" font-size="14.00">concat</text>
</g>
<!-- p32&#45;&gt;p34 -->
<g id="edge33" class="edge">
<title>p32&#45;&gt;p34</title>
<path fill="none" stroke="black" d="M1103.82,-246.01C1099.71,-235.57 1083.68,-194.89 1075.57,-174.3"/>
<polygon fill="black" stroke="black" points="1078.77,-172.89 1071.85,-164.87 1072.26,-175.46 1078.77,-172.89"/>
</g>
<!-- p33 -->
<g id="node36" class="node">
<title>p33</title>
<ellipse fill="none" stroke="black" cx="1104.8" cy="-205.4" rx="3.5" ry="3.5"/>
<text text-anchor="middle" x="1083.3" y="-212.7" font-family="Times,serif" font-size="14.00">concat</text>
</g>
<!-- p32&#45;&gt;p33 -->
<g id="edge34" class="edge">
<title>p32&#45;&gt;p33</title>
<path fill="none" stroke="black" d="M1102.17,-247.1C1098.27,-242.56 1097.14,-227.92 1098.77,-217.5"/>
<polygon fill="black" stroke="black" points="1102.15,-218.44 1102.13,-207.85 1095.54,-216.14 1102.15,-218.44"/>
</g>
<!-- p32&#45;&gt;p33 -->
<g id="edge35" class="edge">
<title>p32&#45;&gt;p33</title>
<path fill="none" stroke="black" d="M1107.43,-247.1C1111.33,-242.56 1112.46,-227.92 1110.83,-217.5"/>
<polygon fill="black" stroke="black" points="1114.06,-216.14 1107.47,-207.85 1107.45,-218.44 1114.06,-216.14"/>
</g>
<!-- p37 -->
<g id="node39" class="node">
<title>p37</title>
<ellipse fill="none" stroke="black" cx="1348.8" cy="-205.4" rx="3.5" ry="3.5"/>
<text text-anchor="middle" x="1332.8" y="-212.7" font-family="Times,serif" font-size="14.00">map</text>
</g>
<!-- p32&#45;&gt;p37 -->
<g id="edge39" class="edge">
<title>p32&#45;&gt;p37</title>
<path fill="none" stroke="black" d="M1108.25,-247.9C1133.4,-243.57 1288.89,-216.74 1335.56,-208.68"/>
<polygon fill="black" stroke="black" points="1336.22,-212.12 1345.48,-206.97 1335.03,-205.22 1336.22,-212.12"/>
</g>
<!-- p35 -->
<g id="node37" class="node">
<title>p35</title>
<ellipse fill="none" stroke="black" cx="992.8" cy="-117.1" rx="3.5" ry="3.5"/>
<text text-anchor="middle" x="973.3" y="-124.4" font-family="Times,serif" font-size="14.00">toList</text>
</g>
<!-- p34&#45;&gt;p35 -->
<g id="edge37" class="edge">
<title>p34&#45;&gt;p35</title>
<path fill="none" stroke="black" d="M1068.2,-158.8C1058.35,-153.48 1022.88,-134.33 1004.31,-124.31"/>
<polygon fill="black" stroke="black" points="1005.95,-121.22 995.48,-119.55 1002.62,-127.38 1005.95,-121.22"/>
</g>
<!-- p33&#45;&gt;p34 -->
<g id="edge36" class="edge">
<title>p33&#45;&gt;p34</title>
<path fill="none" stroke="black" d="M1102.97,-202.13C1098.5,-196.58 1086.81,-182.07 1078.82,-172.15"/>
<polygon fill="black" stroke="black" points="1081.47,-169.87 1072.47,-164.28 1076.02,-174.26 1081.47,-169.87"/>
</g>
<!-- p36 -->
<g id="node38" class="node">
<title>p36</title>
<ellipse fill="none" stroke="black" cx="979.8" cy="-58.6" rx="258.85" ry="18"/>
<text text-anchor="middle" x="979.8" y="-54.9" font-family="Times,serif" font-size="14.00">articNcovNanopore:sequenceAnalysisMedaka:writeQCSummaryCSV</text>
</g>
<!-- p35&#45;&gt;p36 -->
<g id="edge38" class="edge">
<title>p35&#45;&gt;p36</title>
<path fill="none" stroke="black" d="M992.17,-113.37C991.04,-108.43 988.52,-97.5 986.05,-86.77"/>
<polygon fill="black" stroke="black" points="989.4,-85.71 983.75,-76.75 982.58,-87.28 989.4,-85.71"/>
</g>
<!-- p39 -->
<g id="node40" class="node">
<title>p39</title>
<ellipse fill="none" stroke="black" cx="1478.8" cy="-161.2" rx="3.5" ry="3.5"/>
<text text-anchor="middle" x="1464.3" y="-168.5" font-family="Times,serif" font-size="14.00">join</text>
</g>
<!-- p37&#45;&gt;p39 -->
<g id="edge40" class="edge">
<title>p37&#45;&gt;p39</title>
<path fill="none" stroke="black" d="M1352.01,-203.36C1367.75,-198.25 1437.1,-175.74 1466.04,-166.34"/>
<polygon fill="black" stroke="black" points="1467.27,-169.62 1475.7,-163.21 1465.11,-162.97 1467.27,-169.62"/>
</g>
<!-- p41 -->
<g id="node42" class="node">
<title>p41</title>
<ellipse fill="none" stroke="black" cx="1478.8" cy="-117.1" rx="3.5" ry="3.5"/>
<text text-anchor="middle" x="1464.3" y="-124.4" font-family="Times,serif" font-size="14.00">join</text>
</g>
<!-- p39&#45;&gt;p41 -->
<g id="edge42" class="edge">
<title>p39&#45;&gt;p41</title>
<path fill="none" stroke="black" d="M1478.8,-157.44C1478.8,-152.15 1478.8,-140.28 1478.8,-130.95"/>
<polygon fill="black" stroke="black" points="1482.3,-130.93 1478.8,-120.93 1475.3,-130.93 1482.3,-130.93"/>
</g>
<!-- p38 -->
<g id="node41" class="node">
<title>p38</title>
<ellipse fill="black" stroke="black" cx="1478.8" cy="-205.4" rx="3.6" ry="3.6"/>
</g>
<!-- p38&#45;&gt;p39 -->
<g id="edge41" class="edge">
<title>p38&#45;&gt;p39</title>
<path fill="none" stroke="black" d="M1478.8,-201.63C1478.8,-196.33 1478.8,-184.43 1478.8,-175.08"/>
<polygon fill="black" stroke="black" points="1482.3,-175.03 1478.8,-165.03 1475.3,-175.03 1482.3,-175.03"/>
</g>
<!-- p42 -->
<g id="node44" class="node">
<title>p42</title>
<ellipse fill="none" stroke="black" cx="1486.8" cy="-58.6" rx="230.16" ry="18"/>
<text text-anchor="middle" x="1486.8" y="-54.9" font-family="Times,serif" font-size="14.00">articNcovNanopore:sequenceAnalysisMedaka:collateSamples</text>
</g>
<!-- p41&#45;&gt;p42 -->
<g id="edge44" class="edge">
<title>p41&#45;&gt;p42</title>
<path fill="none" stroke="black" d="M1479.19,-113.37C1479.89,-108.43 1481.43,-97.5 1482.95,-86.77"/>
<polygon fill="black" stroke="black" points="1486.43,-87.15 1484.37,-76.75 1479.5,-86.16 1486.43,-87.15"/>
</g>
<!-- p40 -->
<g id="node43" class="node">
<title>p40</title>
<ellipse fill="black" stroke="black" cx="1453.8" cy="-161.2" rx="3.6" ry="3.6"/>
</g>
<!-- p40&#45;&gt;p41 -->
<g id="edge43" class="edge">
<title>p40&#45;&gt;p41</title>
<path fill="none" stroke="black" d="M1455.44,-157.44C1458.79,-151.8 1466.56,-138.71 1472.23,-129.17"/>
<polygon fill="black" stroke="black" points="1475.28,-130.88 1477.38,-120.5 1469.26,-127.31 1475.28,-130.88"/>
</g>
<!-- p43 -->
<g id="node45" class="node">
<title>p43</title>
<ellipse fill="black" stroke="black" cx="1486.8" cy="-1.8" rx="1.8" ry="1.8"/>
</g>
<!-- p42&#45;&gt;p43 -->
<g id="edge45" class="edge">
<title>p42&#45;&gt;p43</title>
<path fill="none" stroke="black" d="M1486.8,-40.56C1486.8,-31.87 1486.8,-21.56 1486.8,-13.9"/>
<polygon fill="black" stroke="black" points="1490.3,-13.76 1486.8,-3.76 1483.3,-13.76 1490.3,-13.76"/>
</g>
<!-- p49 -->
<g id="node48" class="node">
<title>p49</title>
<ellipse fill="none" stroke="black" cx="1638.8" cy="-454.5" rx="3.5" ry="3.5"/>
<text text-anchor="middle" x="1611.3" y="-461.8" font-family="Times,serif" font-size="14.00">combine</text>
</g>
<!-- p46&#45;&gt;p49 -->
<g id="edge48" class="edge">
<title>p46&#45;&gt;p49</title>
<path fill="none" stroke="black" d="M1428.2,-496.11C1497.84,-482.68 1591.55,-464.61 1625.68,-458.03"/>
<polygon fill="black" stroke="black" points="1626.51,-461.43 1635.66,-456.1 1625.18,-454.56 1626.51,-461.43"/>
</g>
<!-- p50 -->
<g id="node51" class="node">
<title>p50</title>
<ellipse fill="none" stroke="black" cx="1638.8" cy="-396" rx="219.86" ry="18"/>
<text text-anchor="middle" x="1638.8" y="-392.3" font-family="Times,serif" font-size="14.00">articNcovNanopore:sequenceAnalysisMedaka:makeReport</text>
</g>
<!-- p49&#45;&gt;p50 -->
<g id="edge51" class="edge">
<title>p49&#45;&gt;p50</title>
<path fill="none" stroke="black" d="M1638.8,-450.77C1638.8,-445.83 1638.8,-434.9 1638.8,-424.17"/>
<polygon fill="black" stroke="black" points="1642.3,-424.15 1638.8,-414.15 1635.3,-424.15 1642.3,-424.15"/>
</g>
<!-- p47 -->
<g id="node49" class="node">
<title>p47</title>
<ellipse fill="black" stroke="black" cx="1663.8" cy="-513" rx="3.6" ry="3.6"/>
</g>
<!-- p47&#45;&gt;p49 -->
<g id="edge49" class="edge">
<title>p47&#45;&gt;p49</title>
<path fill="none" stroke="black" d="M1662.89,-509.33C1660.8,-503.3 1655.41,-488.18 1649.8,-476 1648.39,-472.94 1646.73,-469.7 1645.14,-466.72"/>
<polygon fill="black" stroke="black" points="1648.12,-464.87 1640.18,-457.85 1642,-468.29 1648.12,-464.87"/>
</g>
<!-- p48 -->
<g id="node50" class="node">
<title>p48</title>
<ellipse fill="black" stroke="black" cx="1638.8" cy="-513" rx="3.6" ry="3.6"/>
</g>
<!-- p48&#45;&gt;p49 -->
<g id="edge50" class="edge">
<title>p48&#45;&gt;p49</title>
<path fill="none" stroke="black" d="M1638.8,-509.27C1638.8,-501.99 1638.8,-481.71 1638.8,-468.25"/>
<polygon fill="black" stroke="black" points="1642.3,-468.07 1638.8,-458.07 1635.3,-468.07 1642.3,-468.07"/>
</g>
<!-- p51 -->
<g id="node52" class="node">
<title>p51</title>
<ellipse fill="none" stroke="black" cx="1638.8" cy="-337.5" rx="3.5" ry="3.5"/>
<text text-anchor="middle" x="1606.3" y="-344.8" font-family="Times,serif" font-size="14.00">collectFile</text>
</g>
<!-- p50&#45;&gt;p51 -->
<g id="edge52" class="edge">
<title>p50&#45;&gt;p51</title>
<path fill="none" stroke="black" d="M1638.8,-377.74C1638.8,-369.16 1638.8,-358.97 1638.8,-351.12"/>
<polygon fill="black" stroke="black" points="1642.3,-351.06 1638.8,-341.06 1635.3,-351.06 1642.3,-351.06"/>
</g>
<!-- p52 -->
<g id="node53" class="node">
<title>p52</title>
<ellipse fill="black" stroke="black" cx="1638.8" cy="-293.5" rx="1.8" ry="1.8"/>
</g>
<!-- p51&#45;&gt;p52 -->
<g id="edge53" class="edge">
<title>p51&#45;&gt;p52</title>
<path fill="none" stroke="black" d="M1638.8,-333.74C1638.8,-328.19 1638.8,-315.36 1638.8,-305.87"/>
<polygon fill="black" stroke="black" points="1642.3,-305.8 1638.8,-295.8 1635.3,-305.8 1642.3,-305.8"/>
</g>
</g>
</svg>
