<?xml version="1.0" encoding="UTF-8" standalone="no"?>
<!DOCTYPE svg PUBLIC "-//W3C//DTD SVG 1.1//EN"
 "http://www.w3.org/Graphics/SVG/1.1/DTD/svg11.dtd">
<!-- Generated by graphviz version 2.43.0 (0)
 -->
<!-- Title: pipeline_dag_nanopore3 Pages: 1 -->
<svg width="2194pt" height="1204pt"
 viewBox="0.00 0.00 2194.43 1204.00" xmlns="http://www.w3.org/2000/svg" xmlns:xlink="http://www.w3.org/1999/xlink">
<g id="graph0" class="graph" transform="scale(1 1) rotate(0) translate(4 1200)">
<title>pipeline_dag_nanopore3</title>
<polygon fill="white" stroke="transparent" points="-4,4 -4,-1200 2190.43,-1200 2190.43,4 -4,4"/>
<!-- p0 -->
<g id="node1" class="node">
<title>p0</title>
<ellipse fill="black" stroke="black" cx="403.8" cy="-1177.4" rx="3.6" ry="3.6"/>
<text text-anchor="middle" x="350.2" y="-1184.8" font-family="Times,serif" font-size="14.00">Channel.fromPath</text>
</g>
<!-- p1 -->
<g id="node2" class="node">
<title>p1</title>
<ellipse fill="none" stroke="black" cx="403.8" cy="-1090.4" rx="3.5" ry="3.5"/>
<text text-anchor="middle" x="386.8" y="-1097.7" font-family="Times,serif" font-size="14.00">filter</text>
</g>
<!-- p0&#45;&gt;p1 -->
<g id="edge1" class="edge">
<title>p0&#45;&gt;p1</title>
<path fill="none" stroke="black" d="M403.8,-1173.57C403.8,-1162.89 403.8,-1124.59 403.8,-1104.27"/>
<polygon fill="black" stroke="black" points="407.3,-1103.98 403.8,-1093.98 400.3,-1103.98 407.3,-1103.98"/>
</g>
<!-- p2 -->
<g id="node3" class="node">
<title>p2</title>
<ellipse fill="none" stroke="black" cx="403.8" cy="-1031.9" rx="3.5" ry="3.5"/>
<text text-anchor="middle" x="386.8" y="-1039.2" font-family="Times,serif" font-size="14.00">filter</text>
</g>
<!-- p1&#45;&gt;p2 -->
<g id="edge2" class="edge">
<title>p1&#45;&gt;p2</title>
<path fill="none" stroke="black" d="M403.8,-1086.67C403.8,-1079.39 403.8,-1059.11 403.8,-1045.65"/>
<polygon fill="black" stroke="black" points="407.3,-1045.47 403.8,-1035.47 400.3,-1045.47 407.3,-1045.47"/>
</g>
<!-- p10 -->
<g id="node4" class="node">
<title>p10</title>
<ellipse fill="none" stroke="black" cx="271.8" cy="-959.4" rx="243.96" ry="18"/>
<text text-anchor="middle" x="271.8" y="-955.7" font-family="Times,serif" font-size="14.00">articNcovNanopore:sequenceAnalysisNanopolish:fastqcNanopore</text>
</g>
<!-- p2&#45;&gt;p10 -->
<g id="edge3" class="edge">
<title>p2&#45;&gt;p10</title>
<path fill="none" stroke="black" d="M401.04,-1029.43C389.77,-1023.41 346.23,-1000.15 312.76,-982.28"/>
<polygon fill="black" stroke="black" points="314.09,-979.02 303.62,-977.4 310.8,-985.2 314.09,-979.02"/>
<text text-anchor="middle" x="410.3" y="-999.2" font-family="Times,serif" font-size="14.00">ch_runFastqDirs</text>
</g>
<!-- p20 -->
<g id="node23" class="node">
<title>p20</title>
<ellipse fill="none" stroke="black" cx="659.8" cy="-959.4" rx="3.5" ry="3.5"/>
<text text-anchor="middle" x="638.8" y="-966.7" font-family="Times,serif" font-size="14.00">flatten</text>
</g>
<!-- p2&#45;&gt;p20 -->
<g id="edge17" class="edge">
<title>p2&#45;&gt;p20</title>
<path fill="none" stroke="black" d="M407.04,-1030.01C432.33,-1023.04 598.55,-977.27 646.73,-964"/>
<polygon fill="black" stroke="black" points="647.92,-967.3 656.64,-961.27 646.07,-960.55 647.92,-967.3"/>
<text text-anchor="middle" x="577.3" y="-999.2" font-family="Times,serif" font-size="14.00">ch_runFastqDirs</text>
</g>
<!-- p12 -->
<g id="node13" class="node">
<title>p12</title>
<ellipse fill="none" stroke="black" cx="271.8" cy="-886.4" rx="250.46" ry="18"/>
<text text-anchor="middle" x="271.8" y="-882.7" font-family="Times,serif" font-size="14.00">articNcovNanopore:sequenceAnalysisNanopolish:multiqcNanopore</text>
</g>
<!-- p10&#45;&gt;p12 -->
<g id="edge8" class="edge">
<title>p10&#45;&gt;p12</title>
<path fill="none" stroke="black" d="M271.8,-941.21C271.8,-933.19 271.8,-923.45 271.8,-914.47"/>
<polygon fill="black" stroke="black" points="275.3,-914.43 271.8,-904.43 268.3,-914.43 275.3,-914.43"/>
</g>
<!-- p11 -->
<g id="node14" class="node">
<title>p11</title>
<ellipse fill="black" stroke="black" cx="1.8" cy="-886.4" rx="1.8" ry="1.8"/>
</g>
<!-- p10&#45;&gt;p11 -->
<g id="edge9" class="edge">
<title>p10&#45;&gt;p11</title>
<path fill="none" stroke="black" d="M112.8,-945.69C77.71,-937.5 42.25,-924.59 12.8,-904.4 10.26,-902.66 8.16,-900.11 6.51,-897.52"/>
<polygon fill="black" stroke="black" points="9.53,-895.72 2.06,-888.2 3.21,-898.73 9.53,-895.72"/>
</g>
<!-- p3 -->
<g id="node5" class="node">
<title>p3</title>
<ellipse fill="black" stroke="black" cx="436.8" cy="-1177.4" rx="3.6" ry="3.6"/>
<text text-anchor="middle" x="383.2" y="-1162.6" font-family="Times,serif" font-size="14.00">Channel.fromPath</text>
</g>
<!-- p4 -->
<g id="node6" class="node">
<title>p4</title>
<ellipse fill="black" stroke="black" cx="436.8" cy="-1090.4" rx="1.8" ry="1.8"/>
</g>
<!-- p3&#45;&gt;p4 -->
<g id="edge4" class="edge">
<title>p3&#45;&gt;p4</title>
<path fill="none" stroke="black" d="M436.8,-1173.57C436.8,-1162.59 436.8,-1122.42 436.8,-1102.6"/>
<polygon fill="black" stroke="black" points="440.3,-1102.36 436.8,-1092.36 433.3,-1102.36 440.3,-1102.36"/>
<text text-anchor="middle" x="471.8" y="-1130.2" font-family="Times,serif" font-size="14.00">ch_fast5Pass</text>
</g>
<!-- p5 -->
<g id="node7" class="node">
<title>p5</title>
<ellipse fill="black" stroke="black" cx="670.8" cy="-1177.4" rx="3.6" ry="3.6"/>
<text text-anchor="middle" x="617.2" y="-1184.8" font-family="Times,serif" font-size="14.00">Channel.fromPath</text>
</g>
<!-- p15 -->
<g id="node8" class="node">
<title>p15</title>
<ellipse fill="none" stroke="black" cx="670.8" cy="-1090.4" rx="213.66" ry="18"/>
<text text-anchor="middle" x="670.8" y="-1086.7" font-family="Times,serif" font-size="14.00">articNcovNanopore:sequenceAnalysisNanopolish:pycoqc</text>
</g>
<!-- p5&#45;&gt;p15 -->
<g id="edge5" class="edge">
<title>p5&#45;&gt;p15</title>
<path fill="none" stroke="black" d="M670.8,-1173.57C670.8,-1165.08 670.8,-1139.15 670.8,-1118.67"/>
<polygon fill="black" stroke="black" points="674.3,-1118.57 670.8,-1108.57 667.3,-1118.57 674.3,-1118.57"/>
<text text-anchor="middle" x="716.8" y="-1130.2" font-family="Times,serif" font-size="14.00">ch_seqSummary</text>
</g>
<!-- p17 -->
<g id="node17" class="node">
<title>p17</title>
<ellipse fill="black" stroke="black" cx="657.8" cy="-1031.9" rx="1.8" ry="1.8"/>
</g>
<!-- p15&#45;&gt;p17 -->
<g id="edge12" class="edge">
<title>p15&#45;&gt;p17</title>
<path fill="none" stroke="black" d="M666.83,-1072.14C664.71,-1062.94 662.17,-1051.9 660.32,-1043.87"/>
<polygon fill="black" stroke="black" points="663.68,-1042.87 658.03,-1033.9 656.86,-1044.43 663.68,-1042.87"/>
</g>
<!-- p16 -->
<g id="node18" class="node">
<title>p16</title>
<ellipse fill="black" stroke="black" cx="682.8" cy="-1031.9" rx="1.8" ry="1.8"/>
</g>
<!-- p15&#45;&gt;p16 -->
<g id="edge13" class="edge">
<title>p15&#45;&gt;p16</title>
<path fill="none" stroke="black" d="M674.47,-1072.14C676.42,-1062.94 678.77,-1051.9 680.47,-1043.87"/>
<polygon fill="black" stroke="black" points="683.93,-1044.41 682.59,-1033.9 677.09,-1042.96 683.93,-1044.41"/>
</g>
<!-- p6 -->
<g id="node9" class="node">
<title>p6</title>
<ellipse fill="none" stroke="black" cx="909.8" cy="-1177.4" rx="217.96" ry="18"/>
<text text-anchor="middle" x="909.8" y="-1173.7" font-family="Times,serif" font-size="14.00">articNcovNanopore:sequenceAnalysisNanopolish:versions</text>
</g>
<!-- p7 -->
<g id="node10" class="node">
<title>p7</title>
<ellipse fill="black" stroke="black" cx="909.8" cy="-1090.4" rx="1.8" ry="1.8"/>
</g>
<!-- p6&#45;&gt;p7 -->
<g id="edge6" class="edge">
<title>p6&#45;&gt;p7</title>
<path fill="none" stroke="black" d="M909.8,-1159.2C909.8,-1142.32 909.8,-1117.06 909.8,-1102.62"/>
<polygon fill="black" stroke="black" points="913.3,-1102.48 909.8,-1092.48 906.3,-1102.48 913.3,-1102.48"/>
</g>
<!-- p8 -->
<g id="node11" class="node">
<title>p8</title>
<ellipse fill="none" stroke="black" cx="1384.8" cy="-1177.4" rx="239.36" ry="18"/>
<text text-anchor="middle" x="1384.8" y="-1173.7" font-family="Times,serif" font-size="14.00">articNcovNanopore:sequenceAnalysisNanopolish:pangoversions</text>
</g>
<!-- p9 -->
<g id="node12" class="node">
<title>p9</title>
<ellipse fill="black" stroke="black" cx="1384.8" cy="-1090.4" rx="1.8" ry="1.8"/>
</g>
<!-- p8&#45;&gt;p9 -->
<g id="edge7" class="edge">
<title>p8&#45;&gt;p9</title>
<path fill="none" stroke="black" d="M1384.8,-1159.2C1384.8,-1142.32 1384.8,-1117.06 1384.8,-1102.62"/>
<polygon fill="black" stroke="black" points="1388.3,-1102.48 1384.8,-1092.48 1381.3,-1102.48 1388.3,-1102.48"/>
</g>
<!-- p14 -->
<g id="node15" class="node">
<title>p14</title>
<ellipse fill="black" stroke="black" cx="271.8" cy="-813.4" rx="1.8" ry="1.8"/>
</g>
<!-- p12&#45;&gt;p14 -->
<g id="edge10" class="edge">
<title>p12&#45;&gt;p14</title>
<path fill="none" stroke="black" d="M271.8,-868.21C271.8,-854.97 271.8,-837.05 271.8,-825.61"/>
<polygon fill="black" stroke="black" points="275.3,-825.23 271.8,-815.23 268.3,-825.23 275.3,-825.23"/>
</g>
<!-- p13 -->
<g id="node16" class="node">
<title>p13</title>
<ellipse fill="black" stroke="black" cx="246.8" cy="-813.4" rx="1.8" ry="1.8"/>
</g>
<!-- p12&#45;&gt;p13 -->
<g id="edge11" class="edge">
<title>p12&#45;&gt;p13</title>
<path fill="none" stroke="black" d="M265.75,-868.21C260.98,-854.67 254.49,-836.24 250.48,-824.84"/>
<polygon fill="black" stroke="black" points="253.71,-823.5 247.09,-815.23 247.11,-825.82 253.71,-823.5"/>
</g>
<!-- p18 -->
<g id="node19" class="node">
<title>p18</title>
<ellipse fill="none" stroke="black" cx="559.8" cy="-813.4" rx="268.35" ry="18"/>
<text text-anchor="middle" x="559.8" y="-809.7" font-family="Times,serif" font-size="14.00">articNcovNanopore:sequenceAnalysisNanopolish:articDownloadScheme</text>
</g>
<!-- p39 -->
<g id="node20" class="node">
<title>p39</title>
<ellipse fill="none" stroke="black" cx="512.8" cy="-454.5" rx="3.5" ry="3.5"/>
<text text-anchor="middle" x="485.3" y="-461.8" font-family="Times,serif" font-size="14.00">combine</text>
</g>
<!-- p18&#45;&gt;p39 -->
<g id="edge14" class="edge">
<title>p18&#45;&gt;p39</title>
<path fill="none" stroke="black" d="M490.89,-795.89C473.57,-787.43 459.8,-774.75 459.8,-755.8 459.8,-755.8 459.8,-755.8 459.8,-512 459.8,-488.19 485.15,-470.29 500.78,-461.52"/>
<polygon fill="black" stroke="black" points="502.67,-464.48 509.95,-456.78 499.46,-458.26 502.67,-464.48"/>
<text text-anchor="middle" x="518.8" y="-658.8" font-family="Times,serif" font-size="14.00">ch_nanopore_reffasta</text>
</g>
<!-- p19 -->
<g id="node21" class="node">
<title>p19</title>
<ellipse fill="black" stroke="black" cx="800.8" cy="-754.8" rx="1.8" ry="1.8"/>
</g>
<!-- p18&#45;&gt;p19 -->
<g id="edge15" class="edge">
<title>p18&#45;&gt;p19</title>
<path fill="none" stroke="black" d="M631.96,-796.01C675.17,-786.09 731.42,-772.97 789.64,-758.59"/>
<polygon fill="black" stroke="black" points="790.51,-761.98 799.38,-756.18 788.83,-755.19 790.51,-761.98"/>
</g>
<!-- p24 -->
<g id="node22" class="node">
<title>p24</title>
<ellipse fill="none" stroke="black" cx="836.8" cy="-754.8" rx="3.5" ry="3.5"/>
<text text-anchor="middle" x="809.3" y="-762.1" font-family="Times,serif" font-size="14.00">combine</text>
</g>
<!-- p18&#45;&gt;p24 -->
<g id="edge16" class="edge">
<title>p18&#45;&gt;p24</title>
<path fill="none" stroke="black" d="M639.18,-796.18C704.38,-782.86 791.11,-765.14 823.69,-758.48"/>
<polygon fill="black" stroke="black" points="824.53,-761.88 833.63,-756.45 823.13,-755.02 824.53,-761.88"/>
</g>
<!-- p40 -->
<g id="node42" class="node">
<title>p40</title>
<ellipse fill="none" stroke="black" cx="512.8" cy="-396" rx="237.46" ry="18"/>
<text text-anchor="middle" x="512.8" y="-392.3" font-family="Times,serif" font-size="14.00">articNcovNanopore:sequenceAnalysisNanopolish:makeQCCSV</text>
</g>
<!-- p39&#45;&gt;p40 -->
<g id="edge38" class="edge">
<title>p39&#45;&gt;p40</title>
<path fill="none" stroke="black" d="M512.8,-450.77C512.8,-445.83 512.8,-434.9 512.8,-424.17"/>
<polygon fill="black" stroke="black" points="516.3,-424.15 512.8,-414.15 509.3,-424.15 516.3,-424.15"/>
</g>
<!-- p27 -->
<g id="node27" class="node">
<title>p27</title>
<ellipse fill="none" stroke="black" cx="795.8" cy="-710.6" rx="3.5" ry="3.5"/>
<text text-anchor="middle" x="768.3" y="-717.9" font-family="Times,serif" font-size="14.00">combine</text>
</g>
<!-- p24&#45;&gt;p27 -->
<g id="edge22" class="edge">
<title>p24&#45;&gt;p27</title>
<path fill="none" stroke="black" d="M834.82,-751.76C829.53,-746.32 814.79,-731.15 805.02,-721.09"/>
<polygon fill="black" stroke="black" points="807.33,-718.45 797.85,-713.71 802.31,-723.33 807.33,-718.45"/>
</g>
<!-- p21 -->
<g id="node24" class="node">
<title>p21</title>
<ellipse fill="none" stroke="black" cx="815.8" cy="-886.4" rx="243.16" ry="18"/>
<text text-anchor="middle" x="815.8" y="-882.7" font-family="Times,serif" font-size="14.00">articNcovNanopore:sequenceAnalysisNanopolish:articGuppyPlex</text>
</g>
<!-- p20&#45;&gt;p21 -->
<g id="edge18" class="edge">
<title>p20&#45;&gt;p21</title>
<path fill="none" stroke="black" d="M662.51,-957.17C675.12,-951.43 729.2,-926.82 769.57,-908.44"/>
<polygon fill="black" stroke="black" points="771.08,-911.6 778.73,-904.27 768.18,-905.23 771.08,-911.6"/>
</g>
<!-- p22 -->
<g id="node25" class="node">
<title>p22</title>
<ellipse fill="none" stroke="black" cx="849.8" cy="-813.4" rx="3.5" ry="3.5"/>
<text text-anchor="middle" x="859.8" y="-798.7" font-family="Times,serif" font-size="14.00">filter</text>
</g>
<!-- p21&#45;&gt;p22 -->
<g id="edge19" class="edge">
<title>p21&#45;&gt;p22</title>
<path fill="none" stroke="black" d="M824.03,-868.21C830.28,-855.16 838.71,-837.56 844.2,-826.1"/>
<polygon fill="black" stroke="black" points="847.35,-827.61 848.52,-817.08 841.04,-824.59 847.35,-827.61"/>
</g>
<!-- p22&#45;&gt;p24 -->
<g id="edge20" class="edge">
<title>p22&#45;&gt;p24</title>
<path fill="none" stroke="black" d="M849.17,-809.67C847.48,-802.3 842.74,-781.64 839.64,-768.15"/>
<polygon fill="black" stroke="black" points="843.04,-767.33 837.39,-758.37 836.22,-768.9 843.04,-767.33"/>
</g>
<!-- p23 -->
<g id="node26" class="node">
<title>p23</title>
<ellipse fill="black" stroke="black" cx="874.8" cy="-813.4" rx="3.6" ry="3.6"/>
</g>
<!-- p23&#45;&gt;p24 -->
<g id="edge21" class="edge">
<title>p23&#45;&gt;p24</title>
<path fill="none" stroke="black" d="M873.64,-809.64C870.97,-803.42 863.96,-787.94 855.8,-776.4 853,-772.43 849.49,-768.42 846.25,-765.01"/>
<polygon fill="black" stroke="black" points="848.55,-762.37 838.99,-757.81 843.62,-767.34 848.55,-762.37"/>
</g>
<!-- p30 -->
<g id="node30" class="node">
<title>p30</title>
<ellipse fill="none" stroke="black" cx="782.8" cy="-662.5" rx="3.5" ry="3.5"/>
<text text-anchor="middle" x="755.3" y="-669.8" font-family="Times,serif" font-size="14.00">combine</text>
</g>
<!-- p27&#45;&gt;p30 -->
<g id="edge25" class="edge">
<title>p27&#45;&gt;p30</title>
<path fill="none" stroke="black" d="M795.1,-707.12C793.48,-701.36 789.35,-686.74 786.33,-676.01"/>
<polygon fill="black" stroke="black" points="789.65,-674.89 783.57,-666.22 782.91,-676.79 789.65,-674.89"/>
</g>
<!-- p25 -->
<g id="node28" class="node">
<title>p25</title>
<ellipse fill="black" stroke="black" cx="752.8" cy="-754.8" rx="3.6" ry="3.6"/>
</g>
<!-- p25&#45;&gt;p27 -->
<g id="edge23" class="edge">
<title>p25&#45;&gt;p27</title>
<path fill="none" stroke="black" d="M754.87,-751.76C760.48,-746.26 776.2,-730.84 786.44,-720.78"/>
<polygon fill="black" stroke="black" points="788.96,-723.22 793.65,-713.71 784.06,-718.22 788.96,-723.22"/>
</g>
<!-- p26 -->
<g id="node29" class="node">
<title>p26</title>
<ellipse fill="black" stroke="black" cx="777.8" cy="-754.8" rx="3.6" ry="3.6"/>
</g>
<!-- p26&#45;&gt;p27 -->
<g id="edge24" class="edge">
<title>p26&#45;&gt;p27</title>
<path fill="none" stroke="black" d="M778.87,-751.29C781.15,-745.94 786.62,-733.13 790.72,-723.5"/>
<polygon fill="black" stroke="black" points="794.05,-724.62 794.76,-714.05 787.61,-721.87 794.05,-724.62"/>
</g>
<!-- p31 -->
<g id="node33" class="node">
<title>p31</title>
<ellipse fill="none" stroke="black" cx="852.8" cy="-600" rx="274.85" ry="18"/>
<text text-anchor="middle" x="852.8" y="-596.3" font-family="Times,serif" font-size="14.00">articNcovNanopore:sequenceAnalysisNanopolish:articMinIONNanopolish</text>
</g>
<!-- p30&#45;&gt;p31 -->
<g id="edge28" class="edge">
<title>p30&#45;&gt;p31</title>
<path fill="none" stroke="black" d="M785.13,-659.49C791.39,-654.07 809.19,-638.7 824.96,-625.07"/>
<polygon fill="black" stroke="black" points="827.67,-627.35 832.95,-618.16 823.09,-622.05 827.67,-627.35"/>
</g>
<!-- p28 -->
<g id="node31" class="node">
<title>p28</title>
<ellipse fill="black" stroke="black" cx="745.8" cy="-710.6" rx="3.6" ry="3.6"/>
</g>
<!-- p28&#45;&gt;p30 -->
<g id="edge26" class="edge">
<title>p28&#45;&gt;p30</title>
<path fill="none" stroke="black" d="M747.58,-707.38C752.36,-701.43 765.66,-684.85 774.48,-673.87"/>
<polygon fill="black" stroke="black" points="777.42,-675.8 780.95,-665.81 771.96,-671.42 777.42,-675.8"/>
</g>
<!-- p29 -->
<g id="node32" class="node">
<title>p29</title>
<ellipse fill="black" stroke="black" cx="770.8" cy="-710.6" rx="3.6" ry="3.6"/>
</g>
<!-- p29&#45;&gt;p30 -->
<g id="edge27" class="edge">
<title>p29&#45;&gt;p30</title>
<path fill="none" stroke="black" d="M771.51,-706.85C773.05,-700.95 776.76,-686.71 779.51,-676.16"/>
<polygon fill="black" stroke="black" points="782.97,-676.73 782.1,-666.17 776.2,-674.97 782.97,-676.73"/>
</g>
<!-- p33 -->
<g id="node34" class="node">
<title>p33</title>
<ellipse fill="black" stroke="black" cx="489.8" cy="-513" rx="1.8" ry="1.8"/>
</g>
<!-- p31&#45;&gt;p33 -->
<g id="edge29" class="edge">
<title>p31&#45;&gt;p33</title>
<path fill="none" stroke="black" d="M694.84,-585.24C657.74,-580.16 618.6,-573.28 582.8,-564 544.37,-554.04 529.94,-556.84 499.8,-531 497.69,-529.19 495.91,-526.82 494.46,-524.42"/>
<polygon fill="black" stroke="black" points="497.52,-522.69 490.15,-515.08 491.17,-525.63 497.52,-522.69"/>
</g>
<!-- p37 -->
<g id="node35" class="node">
<title>p37</title>
<ellipse fill="none" stroke="black" cx="537.8" cy="-513" rx="3.5" ry="3.5"/>
<text text-anchor="middle" x="523.3" y="-520.3" font-family="Times,serif" font-size="14.00">join</text>
</g>
<!-- p31&#45;&gt;p37 -->
<g id="edge30" class="edge">
<title>p31&#45;&gt;p37</title>
<path fill="none" stroke="black" d="M691.82,-585.33C643.17,-575.5 591.62,-558.91 549.8,-531 547.55,-529.5 545.6,-527.43 543.95,-525.24"/>
<polygon fill="black" stroke="black" points="546.86,-523.28 538.8,-516.4 540.81,-526.81 546.86,-523.28"/>
</g>
<!-- p34 -->
<g id="node36" class="node">
<title>p34</title>
<ellipse fill="none" stroke="black" cx="852.8" cy="-513" rx="293.55" ry="18"/>
<text text-anchor="middle" x="852.8" y="-509.3" font-family="Times,serif" font-size="14.00">articNcovNanopore:sequenceAnalysisNanopolish:articRemoveUnmappedReads</text>
</g>
<!-- p31&#45;&gt;p34 -->
<g id="edge31" class="edge">
<title>p31&#45;&gt;p34</title>
<path fill="none" stroke="black" d="M852.8,-581.8C852.8,-570.16 852.8,-554.55 852.8,-541.24"/>
<polygon fill="black" stroke="black" points="856.3,-541.18 852.8,-531.18 849.3,-541.18 856.3,-541.18"/>
</g>
<!-- p56 -->
<g id="node37" class="node">
<title>p56</title>
<ellipse fill="none" stroke="black" cx="1455.8" cy="-513" rx="244.26" ry="18"/>
<text text-anchor="middle" x="1455.8" y="-509.3" font-family="Times,serif" font-size="14.00">articNcovNanopore:sequenceAnalysisNanopolish:pangolinTyping</text>
</g>
<!-- p31&#45;&gt;p56 -->
<g id="edge32" class="edge">
<title>p31&#45;&gt;p56</title>
<path fill="none" stroke="black" d="M1029.22,-586.17C1089.53,-580.72 1157.28,-573.4 1218.8,-564 1272.53,-555.79 1332.43,-543.12 1378.56,-532.59"/>
<polygon fill="black" stroke="black" points="1379.53,-535.96 1388.49,-530.31 1377.96,-529.14 1379.53,-535.96"/>
</g>
<!-- p32 -->
<g id="node38" class="node">
<title>p32</title>
<ellipse fill="black" stroke="black" cx="1166.8" cy="-513" rx="1.8" ry="1.8"/>
</g>
<!-- p31&#45;&gt;p32 -->
<g id="edge33" class="edge">
<title>p31&#45;&gt;p32</title>
<path fill="none" stroke="black" d="M1018.39,-585.54C1065.9,-575.66 1115.66,-558.97 1155.8,-531 1158.33,-529.24 1160.42,-526.68 1162.07,-524.09"/>
<polygon fill="black" stroke="black" points="1165.36,-525.33 1166.53,-514.8 1159.05,-522.3 1165.36,-525.33"/>
<text text-anchor="middle" x="1167.8" y="-552.8" font-family="Times,serif" font-size="14.00">ch_nanopore_vcf</text>
</g>
<!-- p57 -->
<g id="node59" class="node">
<title>p57</title>
<ellipse fill="none" stroke="black" cx="1964.8" cy="-513" rx="221.76" ry="18"/>
<text text-anchor="middle" x="1964.8" y="-509.3" font-family="Times,serif" font-size="14.00">articNcovNanopore:sequenceAnalysisNanopolish:nextclade</text>
</g>
<!-- p31&#45;&gt;p57 -->
<g id="edge57" class="edge">
<title>p31&#45;&gt;p57</title>
<path fill="none" stroke="black" d="M1024.11,-585.91C1235.11,-569.78 1591.07,-542.57 1799.34,-526.65"/>
<polygon fill="black" stroke="black" points="1799.75,-530.13 1809.45,-525.87 1799.21,-523.15 1799.75,-530.13"/>
</g>
<!-- p37&#45;&gt;p39 -->
<g id="edge36" class="edge">
<title>p37&#45;&gt;p39</title>
<path fill="none" stroke="black" d="M536.89,-509.33C534.8,-503.3 529.41,-488.18 523.8,-476 522.39,-472.94 520.73,-469.7 519.14,-466.72"/>
<polygon fill="black" stroke="black" points="522.12,-464.87 514.18,-457.85 516,-468.29 522.12,-464.87"/>
</g>
<!-- p35 -->
<g id="node39" class="node">
<title>p35</title>
<ellipse fill="black" stroke="black" cx="852.8" cy="-454.5" rx="1.8" ry="1.8"/>
</g>
<!-- p34&#45;&gt;p35 -->
<g id="edge34" class="edge">
<title>p34&#45;&gt;p35</title>
<path fill="none" stroke="black" d="M852.8,-494.74C852.8,-485.65 852.8,-474.77 852.8,-466.77"/>
<polygon fill="black" stroke="black" points="856.3,-466.5 852.8,-456.5 849.3,-466.5 856.3,-466.5"/>
</g>
<!-- p63 -->
<g id="node58" class="node">
<title>p63</title>
<ellipse fill="none" stroke="black" cx="1455.8" cy="-454.5" rx="3.5" ry="3.5"/>
<text text-anchor="middle" x="1428.3" y="-461.8" font-family="Times,serif" font-size="14.00">combine</text>
</g>
<!-- p56&#45;&gt;p63 -->
<g id="edge56" class="edge">
<title>p56&#45;&gt;p63</title>
<path fill="none" stroke="black" d="M1455.8,-494.74C1455.8,-486.16 1455.8,-475.97 1455.8,-468.12"/>
<polygon fill="black" stroke="black" points="1459.3,-468.06 1455.8,-458.06 1452.3,-468.06 1459.3,-468.06"/>
</g>
<!-- p36 -->
<g id="node40" class="node">
<title>p36</title>
<ellipse fill="black" stroke="black" cx="514.8" cy="-600" rx="3.6" ry="3.6"/>
</g>
<!-- p36&#45;&gt;p37 -->
<g id="edge35" class="edge">
<title>p36&#45;&gt;p37</title>
<path fill="none" stroke="black" d="M515.57,-596.17C518.48,-585.39 529.02,-546.45 534.47,-526.29"/>
<polygon fill="black" stroke="black" points="537.87,-527.15 537.1,-516.58 531.11,-525.32 537.87,-527.15"/>
</g>
<!-- p38 -->
<g id="node41" class="node">
<title>p38</title>
<ellipse fill="black" stroke="black" cx="512.8" cy="-513" rx="3.6" ry="3.6"/>
</g>
<!-- p38&#45;&gt;p39 -->
<g id="edge37" class="edge">
<title>p38&#45;&gt;p39</title>
<path fill="none" stroke="black" d="M512.8,-509.27C512.8,-501.99 512.8,-481.71 512.8,-468.25"/>
<polygon fill="black" stroke="black" points="516.3,-468.07 512.8,-458.07 509.3,-468.07 516.3,-468.07"/>
</g>
<!-- p42 -->
<g id="node43" class="node">
<title>p42</title>
<ellipse fill="none" stroke="black" cx="525.8" cy="-337.5" rx="3.5" ry="3.5"/>
<text text-anchor="middle" x="499.8" y="-344.8" font-family="Times,serif" font-size="14.00">splitCsv</text>
</g>
<!-- p40&#45;&gt;p42 -->
<g id="edge39" class="edge">
<title>p40&#45;&gt;p42</title>
<path fill="none" stroke="black" d="M516.77,-377.74C518.77,-369.05 521.15,-358.72 522.96,-350.84"/>
<polygon fill="black" stroke="black" points="526.38,-351.59 525.21,-341.06 519.56,-350.02 526.38,-351.59"/>
</g>
<!-- p41 -->
<g id="node44" class="node">
<title>p41</title>
<ellipse fill="black" stroke="black" cx="500.8" cy="-337.5" rx="1.8" ry="1.8"/>
</g>
<!-- p40&#45;&gt;p41 -->
<g id="edge40" class="edge">
<title>p40&#45;&gt;p41</title>
<path fill="none" stroke="black" d="M509.13,-377.74C507.18,-368.54 504.83,-357.5 503.13,-349.47"/>
<polygon fill="black" stroke="black" points="506.51,-348.56 501.01,-339.5 499.67,-350.01 506.51,-348.56"/>
</g>
<!-- p43 -->
<g id="node45" class="node">
<title>p43</title>
<ellipse fill="none" stroke="black" cx="525.8" cy="-293.5" rx="3.5" ry="3.5"/>
<text text-anchor="middle" x="503.8" y="-300.8" font-family="Times,serif" font-size="14.00">unique</text>
</g>
<!-- p42&#45;&gt;p43 -->
<g id="edge41" class="edge">
<title>p42&#45;&gt;p43</title>
<path fill="none" stroke="black" d="M525.8,-333.74C525.8,-328.47 525.8,-316.63 525.8,-307.32"/>
<polygon fill="black" stroke="black" points="529.3,-307.32 525.8,-297.32 522.3,-307.32 529.3,-307.32"/>
</g>
<!-- p44 -->
<g id="node46" class="node">
<title>p44</title>
<ellipse fill="none" stroke="black" cx="525.8" cy="-249.5" rx="3.5" ry="3.5"/>
<text text-anchor="middle" x="503.8" y="-256.8" font-family="Times,serif" font-size="14.00">branch</text>
</g>
<!-- p43&#45;&gt;p44 -->
<g id="edge42" class="edge">
<title>p43&#45;&gt;p44</title>
<path fill="none" stroke="black" d="M525.8,-289.74C525.8,-284.47 525.8,-272.63 525.8,-263.32"/>
<polygon fill="black" stroke="black" points="529.3,-263.32 525.8,-253.32 522.3,-263.32 529.3,-263.32"/>
</g>
<!-- p45 -->
<g id="node47" class="node">
<title>p45</title>
<ellipse fill="none" stroke="black" cx="525.8" cy="-205.4" rx="3.5" ry="3.5"/>
<text text-anchor="middle" x="504.3" y="-212.7" font-family="Times,serif" font-size="14.00">concat</text>
</g>
<!-- p44&#45;&gt;p45 -->
<g id="edge43" class="edge">
<title>p44&#45;&gt;p45</title>
<path fill="none" stroke="black" d="M523.17,-247.1C519.27,-242.56 518.14,-227.92 519.77,-217.5"/>
<polygon fill="black" stroke="black" points="523.15,-218.44 523.13,-207.85 516.54,-216.14 523.15,-218.44"/>
</g>
<!-- p44&#45;&gt;p45 -->
<g id="edge44" class="edge">
<title>p44&#45;&gt;p45</title>
<path fill="none" stroke="black" d="M528.43,-247.1C532.33,-242.56 533.46,-227.92 531.83,-217.5"/>
<polygon fill="black" stroke="black" points="535.06,-216.14 528.47,-207.85 528.45,-218.44 535.06,-216.14"/>
</g>
<!-- p46 -->
<g id="node48" class="node">
<title>p46</title>
<ellipse fill="none" stroke="black" cx="491.8" cy="-161.2" rx="3.5" ry="3.5"/>
<text text-anchor="middle" x="470.3" y="-168.5" font-family="Times,serif" font-size="14.00">concat</text>
</g>
<!-- p44&#45;&gt;p46 -->
<g id="edge45" class="edge">
<title>p44&#45;&gt;p46</title>
<path fill="none" stroke="black" d="M524.82,-246.01C520.71,-235.57 504.68,-194.89 496.57,-174.3"/>
<polygon fill="black" stroke="black" points="499.77,-172.89 492.85,-164.87 493.26,-175.46 499.77,-172.89"/>
</g>
<!-- p49 -->
<g id="node51" class="node">
<title>p49</title>
<ellipse fill="none" stroke="black" cx="780.8" cy="-205.4" rx="3.5" ry="3.5"/>
<text text-anchor="middle" x="764.8" y="-212.7" font-family="Times,serif" font-size="14.00">map</text>
</g>
<!-- p44&#45;&gt;p49 -->
<g id="edge49" class="edge">
<title>p44&#45;&gt;p49</title>
<path fill="none" stroke="black" d="M529.02,-247.97C554.11,-243.83 718.4,-216.7 767.17,-208.65"/>
<polygon fill="black" stroke="black" points="768,-212.06 777.3,-206.98 766.86,-205.15 768,-212.06"/>
</g>
<!-- p45&#45;&gt;p46 -->
<g id="edge46" class="edge">
<title>p45&#45;&gt;p46</title>
<path fill="none" stroke="black" d="M523.97,-202.13C519.5,-196.58 507.81,-182.07 499.82,-172.15"/>
<polygon fill="black" stroke="black" points="502.47,-169.87 493.47,-164.28 497.02,-174.26 502.47,-169.87"/>
</g>
<!-- p47 -->
<g id="node49" class="node">
<title>p47</title>
<ellipse fill="none" stroke="black" cx="327.8" cy="-117.1" rx="3.5" ry="3.5"/>
<text text-anchor="middle" x="308.3" y="-124.4" font-family="Times,serif" font-size="14.00">toList</text>
</g>
<!-- p46&#45;&gt;p47 -->
<g id="edge47" class="edge">
<title>p46&#45;&gt;p47</title>
<path fill="none" stroke="black" d="M488.67,-159.4C470.29,-154.68 375.99,-130.47 340.94,-121.47"/>
<polygon fill="black" stroke="black" points="341.79,-118.08 331.23,-118.98 340.05,-124.86 341.79,-118.08"/>
</g>
<!-- p48 -->
<g id="node50" class="node">
<title>p48</title>
<ellipse fill="none" stroke="black" cx="300.8" cy="-58.6" rx="270.25" ry="18"/>
<text text-anchor="middle" x="300.8" y="-54.9" font-family="Times,serif" font-size="14.00">articNcovNanopore:sequenceAnalysisNanopolish:writeQCSummaryCSV</text>
</g>
<!-- p47&#45;&gt;p48 -->
<g id="edge48" class="edge">
<title>p47&#45;&gt;p48</title>
<path fill="none" stroke="black" d="M326.64,-113.67C324.29,-108.75 318.73,-97.13 313.37,-85.91"/>
<polygon fill="black" stroke="black" points="316.46,-84.26 308.99,-76.74 310.15,-87.28 316.46,-84.26"/>
</g>
<!-- p51 -->
<g id="node52" class="node">
<title>p51</title>
<ellipse fill="none" stroke="black" cx="814.8" cy="-161.2" rx="3.5" ry="3.5"/>
<text text-anchor="middle" x="800.3" y="-168.5" font-family="Times,serif" font-size="14.00">join</text>
</g>
<!-- p49&#45;&gt;p51 -->
<g id="edge50" class="edge">
<title>p49&#45;&gt;p51</title>
<path fill="none" stroke="black" d="M782.63,-202.13C787.1,-196.58 798.79,-182.07 806.78,-172.15"/>
<polygon fill="black" stroke="black" points="809.58,-174.26 813.13,-164.28 804.13,-169.87 809.58,-174.26"/>
</g>
<!-- p53 -->
<g id="node54" class="node">
<title>p53</title>
<ellipse fill="none" stroke="black" cx="814.8" cy="-117.1" rx="3.5" ry="3.5"/>
<text text-anchor="middle" x="800.3" y="-124.4" font-family="Times,serif" font-size="14.00">join</text>
</g>
<!-- p51&#45;&gt;p53 -->
<g id="edge52" class="edge">
<title>p51&#45;&gt;p53</title>
<path fill="none" stroke="black" d="M814.8,-157.44C814.8,-152.15 814.8,-140.28 814.8,-130.95"/>
<polygon fill="black" stroke="black" points="818.3,-130.93 814.8,-120.93 811.3,-130.93 818.3,-130.93"/>
</g>
<!-- p50 -->
<g id="node53" class="node">
<title>p50</title>
<ellipse fill="black" stroke="black" cx="814.8" cy="-205.4" rx="3.6" ry="3.6"/>
</g>
<!-- p50&#45;&gt;p51 -->
<g id="edge51" class="edge">
<title>p50&#45;&gt;p51</title>
<path fill="none" stroke="black" d="M814.8,-201.63C814.8,-196.33 814.8,-184.43 814.8,-175.08"/>
<polygon fill="black" stroke="black" points="818.3,-175.03 814.8,-165.03 811.3,-175.03 818.3,-175.03"/>
</g>
<!-- p54 -->
<g id="node56" class="node">
<title>p54</title>
<ellipse fill="none" stroke="black" cx="830.8" cy="-58.6" rx="241.56" ry="18"/>
<text text-anchor="middle" x="830.8" y="-54.9" font-family="Times,serif" font-size="14.00">articNcovNanopore:sequenceAnalysisNanopolish:collateSamples</text>
</g>
<!-- p53&#45;&gt;p54 -->
<g id="edge54" class="edge">
<title>p53&#45;&gt;p54</title>
<path fill="none" stroke="black" d="M815.57,-113.37C816.99,-108.38 820.13,-97.27 823.2,-86.44"/>
<polygon fill="black" stroke="black" points="826.59,-87.33 825.94,-76.75 819.85,-85.42 826.59,-87.33"/>
</g>
<!-- p52 -->
<g id="node55" class="node">
<title>p52</title>
<ellipse fill="black" stroke="black" cx="789.8" cy="-161.2" rx="3.6" ry="3.6"/>
</g>
<!-- p52&#45;&gt;p53 -->
<g id="edge53" class="edge">
<title>p52&#45;&gt;p53</title>
<path fill="none" stroke="black" d="M791.44,-157.44C794.79,-151.8 802.56,-138.71 808.23,-129.17"/>
<polygon fill="black" stroke="black" points="811.28,-130.88 813.38,-120.5 805.26,-127.31 811.28,-130.88"/>
</g>
<!-- p55 -->
<g id="node57" class="node">
<title>p55</title>
<ellipse fill="black" stroke="black" cx="830.8" cy="-1.8" rx="1.8" ry="1.8"/>
</g>
<!-- p54&#45;&gt;p55 -->
<g id="edge55" class="edge">
<title>p54&#45;&gt;p55</title>
<path fill="none" stroke="black" d="M830.8,-40.56C830.8,-31.87 830.8,-21.56 830.8,-13.9"/>
<polygon fill="black" stroke="black" points="834.3,-13.76 830.8,-3.76 827.3,-13.76 834.3,-13.76"/>
</g>
<!-- p64 -->
<g id="node65" class="node">
<title>p64</title>
<ellipse fill="none" stroke="black" cx="1455.8" cy="-396" rx="231.26" ry="18"/>
<text text-anchor="middle" x="1455.8" y="-392.3" font-family="Times,serif" font-size="14.00">articNcovNanopore:sequenceAnalysisNanopolish:makeReport</text>
</g>
<!-- p63&#45;&gt;p64 -->
<g id="edge62" class="edge">
<title>p63&#45;&gt;p64</title>
<path fill="none" stroke="black" d="M1455.8,-450.77C1455.8,-445.83 1455.8,-434.9 1455.8,-424.17"/>
<polygon fill="black" stroke="black" points="1459.3,-424.15 1455.8,-414.15 1452.3,-424.15 1459.3,-424.15"/>
</g>
<!-- p58 -->
<g id="node60" class="node">
<title>p58</title>
<ellipse fill="black" stroke="black" cx="1964.8" cy="-454.5" rx="1.8" ry="1.8"/>
</g>
<!-- p57&#45;&gt;p58 -->
<g id="edge58" class="edge">
<title>p57&#45;&gt;p58</title>
<path fill="none" stroke="black" d="M1964.8,-494.74C1964.8,-485.65 1964.8,-474.77 1964.8,-466.77"/>
<polygon fill="black" stroke="black" points="1968.3,-466.5 1964.8,-456.5 1961.3,-466.5 1968.3,-466.5"/>
</g>
<!-- p59 -->
<g id="node61" class="node">
<title>p59</title>
<ellipse fill="none" stroke="black" cx="1905.8" cy="-1177.4" rx="263.75" ry="18"/>
<text text-anchor="middle" x="1905.8" y="-1173.7" font-family="Times,serif" font-size="14.00">articNcovNanopore:sequenceAnalysisNanopolish:getVariantDefinitions</text>
</g>
<!-- p60 -->
<g id="node62" class="node">
<title>p60</title>
<ellipse fill="black" stroke="black" cx="1905.8" cy="-1090.4" rx="1.8" ry="1.8"/>
</g>
<!-- p59&#45;&gt;p60 -->
<g id="edge59" class="edge">
<title>p59&#45;&gt;p60</title>
<path fill="none" stroke="black" d="M1905.8,-1159.2C1905.8,-1142.32 1905.8,-1117.06 1905.8,-1102.62"/>
<polygon fill="black" stroke="black" points="1909.3,-1102.48 1905.8,-1092.48 1902.3,-1102.48 1909.3,-1102.48"/>
</g>
<!-- p61 -->
<g id="node63" class="node">
<title>p61</title>
<ellipse fill="black" stroke="black" cx="1721.8" cy="-513" rx="3.6" ry="3.6"/>
</g>
<!-- p61&#45;&gt;p63 -->
<g id="edge60" class="edge">
<title>p61&#45;&gt;p63</title>
<path fill="none" stroke="black" d="M1720.69,-509.55C1718.82,-505.75 1714.68,-498.49 1708.8,-495 1667.58,-470.5 1516.18,-459.24 1469.56,-456.31"/>
<polygon fill="black" stroke="black" points="1469.56,-452.8 1459.37,-455.69 1469.14,-459.79 1469.56,-452.8"/>
</g>
<!-- p62 -->
<g id="node64" class="node">
<title>p62</title>
<ellipse fill="black" stroke="black" cx="1189.8" cy="-513" rx="3.6" ry="3.6"/>
</g>
<!-- p62&#45;&gt;p63 -->
<g id="edge61" class="edge">
<title>p62&#45;&gt;p63</title>
<path fill="none" stroke="black" d="M1190.91,-509.55C1192.78,-505.75 1196.92,-498.49 1202.8,-495 1244.02,-470.5 1395.42,-459.24 1442.04,-456.31"/>
<polygon fill="black" stroke="black" points="1442.46,-459.79 1452.23,-455.69 1442.04,-452.8 1442.46,-459.79"/>
</g>
<!-- p65 -->
<g id="node66" class="node">
<title>p65</title>
<ellipse fill="none" stroke="black" cx="1455.8" cy="-337.5" rx="3.5" ry="3.5"/>
<text text-anchor="middle" x="1423.3" y="-344.8" font-family="Times,serif" font-size="14.00">collectFile</text>
</g>
<!-- p64&#45;&gt;p65 -->
<g id="edge63" class="edge">
<title>p64&#45;&gt;p65</title>
<path fill="none" stroke="black" d="M1455.8,-377.74C1455.8,-369.16 1455.8,-358.97 1455.8,-351.12"/>
<polygon fill="black" stroke="black" points="1459.3,-351.06 1455.8,-341.06 1452.3,-351.06 1459.3,-351.06"/>
</g>
<!-- p66 -->
<g id="node67" class="node">
<title>p66</title>
<ellipse fill="black" stroke="black" cx="1455.8" cy="-293.5" rx="1.8" ry="1.8"/>
</g>
<!-- p65&#45;&gt;p66 -->
<g id="edge64" class="edge">
<title>p65&#45;&gt;p66</title>
<path fill="none" stroke="black" d="M1455.8,-333.74C1455.8,-328.19 1455.8,-315.36 1455.8,-305.87"/>
<polygon fill="black" stroke="black" points="1459.3,-305.8 1455.8,-295.8 1452.3,-305.8 1459.3,-305.8"/>
</g>
</g>
</svg>
