<?xml version="1.0" encoding="UTF-8" standalone="no"?>
<!DOCTYPE svg PUBLIC "-//W3C//DTD SVG 1.1//EN"
 "http://www.w3.org/Graphics/SVG/1.1/DTD/svg11.dtd">
<!-- Generated by graphviz version 2.43.0 (0)
 -->
<!-- Title: pipeline_dag Pages: 1 -->
<svg width="2185pt" height="1133pt"
 viewBox="0.00 0.00 2184.92 1132.60" xmlns="http://www.w3.org/2000/svg" xmlns:xlink="http://www.w3.org/1999/xlink">
<g id="graph0" class="graph" transform="scale(1 1) rotate(0) translate(4 1128.6)">
<title>pipeline_dag</title>
<polygon fill="white" stroke="transparent" points="-4,4 -4,-1128.6 2180.92,-1128.6 2180.92,4 -4,4"/>
<!-- p0 -->
<g id="node1" class="node">
<title>p0</title>
<ellipse fill="black" stroke="black" cx="317.89" cy="-1106" rx="3.6" ry="3.6"/>
<text text-anchor="middle" x="252.29" y="-1113.4" font-family="Times,serif" font-size="14.00">Channel.fromFilePairs</text>
</g>
<!-- p1 -->
<g id="node2" class="node">
<title>p1</title>
<ellipse fill="none" stroke="black" cx="317.89" cy="-1033" rx="3.5" ry="3.5"/>
<text text-anchor="middle" x="300.89" y="-1040.3" font-family="Times,serif" font-size="14.00">filter</text>
</g>
<!-- p0&#45;&gt;p1 -->
<g id="edge1" class="edge">
<title>p0&#45;&gt;p1</title>
<path fill="none" stroke="black" d="M317.89,-1102.3C317.89,-1093.3 317.89,-1063.86 317.89,-1046.71"/>
<polygon fill="black" stroke="black" points="321.39,-1046.7 317.89,-1036.7 314.39,-1046.7 321.39,-1046.7"/>
</g>
<!-- p5 -->
<g id="node3" class="node">
<title>p5</title>
<ellipse fill="none" stroke="black" cx="146.89" cy="-946" rx="146.77" ry="18"/>
<text text-anchor="middle" x="146.89" y="-942.3" font-family="Times,serif" font-size="14.00">ncovIllumina:sequenceAnalysis:fastqc</text>
</g>
<!-- p1&#45;&gt;p5 -->
<g id="edge2" class="edge">
<title>p1&#45;&gt;p5</title>
<path fill="none" stroke="black" d="M315.2,-1030.66C301.09,-1023.65 234.46,-990.53 189.39,-968.13"/>
<polygon fill="black" stroke="black" points="190.92,-964.98 180.4,-963.66 187.8,-971.25 190.92,-964.98"/>
<text text-anchor="middle" x="275.39" y="-985.8" font-family="Times,serif" font-size="14.00">ch_filePairs</text>
</g>
<!-- p6 -->
<g id="node10" class="node">
<title>p6</title>
<ellipse fill="none" stroke="black" cx="488.89" cy="-946" rx="177.37" ry="18"/>
<text text-anchor="middle" x="488.89" y="-942.3" font-family="Times,serif" font-size="14.00">ncovIllumina:sequenceAnalysis:readTrimming</text>
</g>
<!-- p1&#45;&gt;p6 -->
<g id="edge8" class="edge">
<title>p1&#45;&gt;p6</title>
<path fill="none" stroke="black" d="M320.57,-1030.66C334.64,-1023.67 400.94,-990.72 446,-968.32"/>
<polygon fill="black" stroke="black" points="447.59,-971.43 454.99,-963.85 444.48,-965.17 447.59,-971.43"/>
<text text-anchor="middle" x="446.39" y="-985.8" font-family="Times,serif" font-size="14.00">ch_filePairs</text>
</g>
<!-- p46 -->
<g id="node9" class="node">
<title>p46</title>
<ellipse fill="none" stroke="black" cx="146.89" cy="-836.5" rx="3.5" ry="3.5"/>
<text text-anchor="middle" x="124.89" y="-843.8" font-family="Times,serif" font-size="14.00">collect</text>
</g>
<!-- p5&#45;&gt;p46 -->
<g id="edge7" class="edge">
<title>p5&#45;&gt;p46</title>
<path fill="none" stroke="black" d="M146.89,-927.73C146.89,-906.12 146.89,-869.63 146.89,-850.34"/>
<polygon fill="black" stroke="black" points="150.39,-850.13 146.89,-840.13 143.39,-850.13 150.39,-850.13"/>
</g>
<!-- p2 -->
<g id="node4" class="node">
<title>p2</title>
<ellipse fill="none" stroke="black" cx="1042.89" cy="-1033" rx="222.06" ry="18"/>
<text text-anchor="middle" x="1042.89" y="-1029.3" font-family="Times,serif" font-size="14.00">ncovIllumina:prepareReferenceFiles:articDownloadScheme</text>
</g>
<!-- p4 -->
<g id="node5" class="node">
<title>p4</title>
<ellipse fill="none" stroke="black" cx="1302.89" cy="-946" rx="196.87" ry="18"/>
<text text-anchor="middle" x="1302.89" y="-942.3" font-family="Times,serif" font-size="14.00">ncovIllumina:prepareReferenceFiles:indexReference</text>
</g>
<!-- p2&#45;&gt;p4 -->
<g id="edge3" class="edge">
<title>p2&#45;&gt;p4</title>
<path fill="none" stroke="black" d="M1093.63,-1015.41C1136.32,-1001.46 1197.43,-981.48 1242.6,-966.71"/>
<polygon fill="black" stroke="black" points="1243.85,-969.98 1252.27,-963.55 1241.67,-963.33 1243.85,-969.98"/>
<text text-anchor="middle" x="1209.39" y="-985.8" font-family="Times,serif" font-size="14.00">reffasta</text>
</g>
<!-- p11 -->
<g id="node6" class="node">
<title>p11</title>
<ellipse fill="none" stroke="black" cx="845.89" cy="-728.5" rx="3.5" ry="3.5"/>
<text text-anchor="middle" x="818.39" y="-735.8" font-family="Times,serif" font-size="14.00">combine</text>
</g>
<!-- p2&#45;&gt;p11 -->
<g id="edge4" class="edge">
<title>p2&#45;&gt;p11</title>
<path fill="none" stroke="black" d="M988.5,-1015.41C957.94,-1002.36 925.89,-980.64 925.89,-947 925.89,-947 925.89,-947 925.89,-792 925.89,-758.53 881.88,-740.33 859.14,-733.16"/>
<polygon fill="black" stroke="black" points="859.9,-729.73 849.32,-730.33 857.97,-736.46 859.9,-729.73"/>
<text text-anchor="middle" x="956.39" y="-865.8" font-family="Times,serif" font-size="14.00">ch_bedFile</text>
</g>
<!-- p3 -->
<g id="node7" class="node">
<title>p3</title>
<ellipse fill="black" stroke="black" cx="1042.89" cy="-946" rx="1.8" ry="1.8"/>
</g>
<!-- p2&#45;&gt;p3 -->
<g id="edge5" class="edge">
<title>p2&#45;&gt;p3</title>
<path fill="none" stroke="black" d="M1042.89,-1014.8C1042.89,-997.92 1042.89,-972.66 1042.89,-958.22"/>
<polygon fill="black" stroke="black" points="1046.39,-958.08 1042.89,-948.08 1039.39,-958.08 1046.39,-958.08"/>
</g>
<!-- p8 -->
<g id="node8" class="node">
<title>p8</title>
<ellipse fill="none" stroke="black" cx="688.89" cy="-869.5" rx="3.5" ry="3.5"/>
<text text-anchor="middle" x="661.39" y="-876.8" font-family="Times,serif" font-size="14.00">combine</text>
</g>
<!-- p4&#45;&gt;p8 -->
<g id="edge6" class="edge">
<title>p4&#45;&gt;p8</title>
<path fill="none" stroke="black" d="M1189.55,-931.25C1033.63,-912.33 765.05,-879.74 702.28,-872.12"/>
<polygon fill="black" stroke="black" points="702.47,-868.62 692.12,-870.89 701.63,-875.57 702.47,-868.62"/>
<text text-anchor="middle" x="1058.39" y="-898.8" font-family="Times,serif" font-size="14.00">ch_preparedRef</text>
</g>
<!-- p14 -->
<g id="node18" class="node">
<title>p14</title>
<ellipse fill="none" stroke="black" cx="1336.89" cy="-703.5" rx="3.5" ry="3.5"/>
<text text-anchor="middle" x="1320.89" y="-710.8" font-family="Times,serif" font-size="14.00">map</text>
</g>
<!-- p4&#45;&gt;p14 -->
<g id="edge18" class="edge">
<title>p4&#45;&gt;p14</title>
<path fill="none" stroke="black" d="M1305.78,-927.89C1308.07,-912.83 1310.89,-890.27 1310.89,-870.5 1310.89,-870.5 1310.89,-870.5 1310.89,-752.5 1310.89,-737.74 1320.5,-723.18 1328.04,-714.04"/>
<polygon fill="black" stroke="black" points="1330.75,-716.26 1334.85,-706.49 1325.55,-711.57 1330.75,-716.26"/>
<text text-anchor="middle" x="1354.39" y="-832.8" font-family="Times,serif" font-size="14.00">ch_preparedRef</text>
</g>
<!-- p20 -->
<g id="node23" class="node">
<title>p20</title>
<ellipse fill="none" stroke="black" cx="1528.89" cy="-836.5" rx="3.5" ry="3.5"/>
<text text-anchor="middle" x="1512.89" y="-843.8" font-family="Times,serif" font-size="14.00">map</text>
</g>
<!-- p4&#45;&gt;p20 -->
<g id="edge24" class="edge">
<title>p4&#45;&gt;p20</title>
<path fill="none" stroke="black" d="M1395.11,-929.97C1413.2,-925.05 1431.61,-918.55 1447.89,-910 1478.59,-893.88 1506.95,-863.55 1520.51,-847.71"/>
<polygon fill="black" stroke="black" points="1523.47,-849.63 1527.16,-839.69 1518.08,-845.16 1523.47,-849.63"/>
<text text-anchor="middle" x="1514.39" y="-898.8" font-family="Times,serif" font-size="14.00">ch_preparedRef</text>
</g>
<!-- p28 -->
<g id="node33" class="node">
<title>p28</title>
<ellipse fill="none" stroke="black" cx="1433.89" cy="-624.5" rx="3.5" ry="3.5"/>
<text text-anchor="middle" x="1417.89" y="-631.8" font-family="Times,serif" font-size="14.00">map</text>
</g>
<!-- p4&#45;&gt;p28 -->
<g id="edge35" class="edge">
<title>p4&#45;&gt;p28</title>
<path fill="none" stroke="black" d="M1378.71,-929.34C1407.68,-918.52 1433.89,-900.46 1433.89,-870.5 1433.89,-870.5 1433.89,-870.5 1433.89,-702.5 1433.89,-679.96 1433.89,-653.71 1433.89,-638.41"/>
<polygon fill="black" stroke="black" points="1437.39,-638.16 1433.89,-628.16 1430.39,-638.16 1437.39,-638.16"/>
<text text-anchor="middle" x="1477.39" y="-789.3" font-family="Times,serif" font-size="14.00">ch_preparedRef</text>
</g>
<!-- p40 -->
<g id="node44" class="node">
<title>p40</title>
<ellipse fill="none" stroke="black" cx="1035.89" cy="-753.5" rx="3.5" ry="3.5"/>
<text text-anchor="middle" x="1019.89" y="-760.8" font-family="Times,serif" font-size="14.00">map</text>
</g>
<!-- p4&#45;&gt;p40 -->
<g id="edge49" class="edge">
<title>p4&#45;&gt;p40</title>
<path fill="none" stroke="black" d="M1279.19,-928.09C1223.54,-888.39 1086.22,-790.41 1046.69,-762.21"/>
<polygon fill="black" stroke="black" points="1048.6,-759.27 1038.43,-756.31 1044.53,-764.97 1048.6,-759.27"/>
<text text-anchor="middle" x="1249.39" y="-865.8" font-family="Times,serif" font-size="14.00">ch_preparedRef</text>
</g>
<!-- p12 -->
<g id="node15" class="node">
<title>p12</title>
<ellipse fill="none" stroke="black" cx="1107.89" cy="-664" rx="202.26" ry="18"/>
<text text-anchor="middle" x="1107.89" y="-660.3" font-family="Times,serif" font-size="14.00">ncovIllumina:sequenceAnalysis:trimPrimerSequences</text>
</g>
<!-- p11&#45;&gt;p12 -->
<g id="edge15" class="edge">
<title>p11&#45;&gt;p12</title>
<path fill="none" stroke="black" d="M849.2,-726.71C867.86,-722.26 961.48,-699.93 1030.76,-683.4"/>
<polygon fill="black" stroke="black" points="1031.88,-686.73 1040.79,-681.01 1030.25,-679.92 1031.88,-686.73"/>
</g>
<!-- p9 -->
<g id="node13" class="node">
<title>p9</title>
<ellipse fill="none" stroke="black" cx="688.89" cy="-793" rx="172.77" ry="18"/>
<text text-anchor="middle" x="688.89" y="-789.3" font-family="Times,serif" font-size="14.00">ncovIllumina:sequenceAnalysis:readMapping</text>
</g>
<!-- p8&#45;&gt;p9 -->
<g id="edge12" class="edge">
<title>p8&#45;&gt;p9</title>
<path fill="none" stroke="black" d="M688.89,-865.67C688.89,-858.36 688.89,-838.24 688.89,-821.17"/>
<polygon fill="black" stroke="black" points="692.39,-821.07 688.89,-811.07 685.39,-821.07 692.39,-821.07"/>
</g>
<!-- p47 -->
<g id="node49" class="node">
<title>p47</title>
<ellipse fill="none" stroke="black" cx="184.89" cy="-352" rx="153.27" ry="18"/>
<text text-anchor="middle" x="184.89" y="-348.3" font-family="Times,serif" font-size="14.00">ncovIllumina:sequenceAnalysis:multiqc</text>
</g>
<!-- p46&#45;&gt;p47 -->
<g id="edge57" class="edge">
<title>p46&#45;&gt;p47</title>
<path fill="none" stroke="black" d="M146.89,-832.98C146.89,-823.02 146.89,-785.44 146.89,-754.5 146.89,-754.5 146.89,-754.5 146.89,-424 146.89,-407.53 154.93,-391.18 163.62,-378.33"/>
<polygon fill="black" stroke="black" points="166.6,-380.18 169.65,-370.04 160.94,-376.07 166.6,-380.18"/>
</g>
<!-- p6&#45;&gt;p8 -->
<g id="edge10" class="edge">
<title>p6&#45;&gt;p8</title>
<path fill="none" stroke="black" d="M533.27,-928.47C579.39,-911.29 648.63,-885.49 676.56,-875.09"/>
<polygon fill="black" stroke="black" points="677.89,-878.33 686.04,-871.56 675.44,-871.77 677.89,-878.33"/>
</g>
<!-- p44 -->
<g id="node11" class="node">
<title>p44</title>
<ellipse fill="none" stroke="black" cx="260.89" cy="-753.5" rx="3.5" ry="3.5"/>
<text text-anchor="middle" x="238.89" y="-760.8" font-family="Times,serif" font-size="14.00">collect</text>
</g>
<!-- p6&#45;&gt;p44 -->
<g id="edge9" class="edge">
<title>p6&#45;&gt;p44</title>
<path fill="none" stroke="black" d="M468.65,-928.09C421.44,-888.64 305.37,-791.66 270.77,-762.76"/>
<polygon fill="black" stroke="black" points="272.97,-760.04 263.05,-756.31 268.48,-765.41 272.97,-760.04"/>
</g>
<!-- p44&#45;&gt;p47 -->
<g id="edge55" class="edge">
<title>p44&#45;&gt;p47</title>
<path fill="none" stroke="black" d="M257.62,-752.08C243.07,-749.99 184.89,-739.46 184.89,-704.5 184.89,-704.5 184.89,-704.5 184.89,-424 184.89,-409.65 184.89,-393.67 184.89,-380.51"/>
<polygon fill="black" stroke="black" points="188.39,-380.22 184.89,-370.22 181.39,-380.22 188.39,-380.22"/>
</g>
<!-- p7 -->
<g id="node12" class="node">
<title>p7</title>
<ellipse fill="black" stroke="black" cx="688.89" cy="-946" rx="3.6" ry="3.6"/>
</g>
<!-- p7&#45;&gt;p8 -->
<g id="edge11" class="edge">
<title>p7&#45;&gt;p8</title>
<path fill="none" stroke="black" d="M688.89,-942.17C688.89,-932.59 688.89,-900.97 688.89,-883.1"/>
<polygon fill="black" stroke="black" points="692.39,-883.02 688.89,-873.02 685.39,-883.02 692.39,-883.02"/>
</g>
<!-- p9&#45;&gt;p11 -->
<g id="edge13" class="edge">
<title>p9&#45;&gt;p11</title>
<path fill="none" stroke="black" d="M730.55,-775.42C764.89,-761.75 811.39,-743.23 833.38,-734.48"/>
<polygon fill="black" stroke="black" points="834.84,-737.66 842.84,-730.71 832.25,-731.16 834.84,-737.66"/>
</g>
<!-- p10 -->
<g id="node14" class="node">
<title>p10</title>
<ellipse fill="black" stroke="black" cx="882.89" cy="-793" rx="3.6" ry="3.6"/>
</g>
<!-- p10&#45;&gt;p11 -->
<g id="edge14" class="edge">
<title>p10&#45;&gt;p11</title>
<path fill="none" stroke="black" d="M881.48,-789.63C876.81,-781.74 861.6,-756.04 852.64,-740.91"/>
<polygon fill="black" stroke="black" points="855.4,-738.7 847.29,-731.88 849.38,-742.26 855.4,-738.7"/>
</g>
<!-- p13 -->
<g id="node16" class="node">
<title>p13</title>
<ellipse fill="black" stroke="black" cx="923.89" cy="-585" rx="1.8" ry="1.8"/>
</g>
<!-- p12&#45;&gt;p13 -->
<g id="edge16" class="edge">
<title>p12&#45;&gt;p13</title>
<path fill="none" stroke="black" d="M1025.68,-647.43C994.44,-638.42 960.11,-624.44 933.89,-603 931.73,-601.24 929.94,-598.88 928.49,-596.49"/>
<polygon fill="black" stroke="black" points="931.55,-594.75 924.23,-587.09 925.18,-597.65 931.55,-594.75"/>
</g>
<!-- p16 -->
<g id="node17" class="node">
<title>p16</title>
<ellipse fill="none" stroke="black" cx="1401.89" cy="-585" rx="3.5" ry="3.5"/>
<text text-anchor="middle" x="1374.39" y="-592.3" font-family="Times,serif" font-size="14.00">combine</text>
</g>
<!-- p12&#45;&gt;p16 -->
<g id="edge17" class="edge">
<title>p12&#45;&gt;p16</title>
<path fill="none" stroke="black" d="M1214.02,-648.63C1281.36,-637.96 1361.05,-622.01 1389.89,-603 1392.14,-601.51 1394.1,-599.45 1395.75,-597.26"/>
<polygon fill="black" stroke="black" points="1398.9,-598.81 1400.89,-588.41 1392.84,-595.3 1398.9,-598.81"/>
</g>
<!-- p22 -->
<g id="node24" class="node">
<title>p22</title>
<ellipse fill="none" stroke="black" cx="1564.89" cy="-585" rx="3.5" ry="3.5"/>
<text text-anchor="middle" x="1537.39" y="-592.3" font-family="Times,serif" font-size="14.00">combine</text>
</g>
<!-- p12&#45;&gt;p22 -->
<g id="edge26" class="edge">
<title>p12&#45;&gt;p22</title>
<path fill="none" stroke="black" d="M1213.34,-648.6C1255.01,-642.64 1303.27,-635.39 1346.89,-628 1424.73,-614.81 1517.57,-595.84 1551.57,-588.78"/>
<polygon fill="black" stroke="black" points="1552.49,-592.17 1561.57,-586.7 1551.06,-585.31 1552.49,-592.17"/>
</g>
<!-- p25 -->
<g id="node28" class="node">
<title>p25</title>
<ellipse fill="none" stroke="black" cx="1125.89" cy="-585" rx="182.77" ry="18"/>
<text text-anchor="middle" x="1125.89" y="-581.3" font-family="Times,serif" font-size="14.00">ncovIllumina:sequenceAnalysis:makeConsensus</text>
</g>
<!-- p12&#45;&gt;p25 -->
<g id="edge30" class="edge">
<title>p12&#45;&gt;p25</title>
<path fill="none" stroke="black" d="M1111.88,-645.91C1114.14,-636.24 1117.02,-623.93 1119.58,-612.98"/>
<polygon fill="black" stroke="black" points="1123.04,-613.58 1121.9,-603.04 1116.22,-611.98 1123.04,-613.58"/>
</g>
<!-- p27 -->
<g id="node31" class="node">
<title>p27</title>
<ellipse fill="none" stroke="black" cx="1331.89" cy="-585" rx="3.5" ry="3.5"/>
<text text-anchor="middle" x="1339.39" y="-592.3" font-family="Times,serif" font-size="14.00">join</text>
</g>
<!-- p12&#45;&gt;p27 -->
<g id="edge33" class="edge">
<title>p12&#45;&gt;p27</title>
<path fill="none" stroke="black" d="M1168.06,-646.75C1227.8,-630.47 1311.42,-607.24 1317.89,-603 1320.46,-601.31 1322.8,-599.01 1324.8,-596.64"/>
<polygon fill="black" stroke="black" points="1327.72,-598.56 1330.58,-588.36 1321.99,-594.55 1327.72,-598.56"/>
</g>
<!-- p42 -->
<g id="node45" class="node">
<title>p42</title>
<ellipse fill="none" stroke="black" cx="861.89" cy="-585" rx="3.5" ry="3.5"/>
<text text-anchor="middle" x="834.39" y="-592.3" font-family="Times,serif" font-size="14.00">combine</text>
</g>
<!-- p12&#45;&gt;p42 -->
<g id="edge52" class="edge">
<title>p12&#45;&gt;p42</title>
<path fill="none" stroke="black" d="M1029.44,-647.33C1006.47,-642 981.46,-635.47 958.89,-628 927.16,-617.5 891.49,-600.68 873.54,-591.85"/>
<polygon fill="black" stroke="black" points="875.03,-588.69 864.52,-587.35 871.9,-594.95 875.03,-588.69"/>
</g>
<!-- p17 -->
<g id="node20" class="node">
<title>p17</title>
<ellipse fill="none" stroke="black" cx="1612.89" cy="-512" rx="211.76" ry="18"/>
<text text-anchor="middle" x="1612.89" y="-508.3" font-family="Times,serif" font-size="14.00">ncovIllumina:sequenceAnalysis:callConsensusFreebayes</text>
</g>
<!-- p16&#45;&gt;p17 -->
<g id="edge21" class="edge">
<title>p16&#45;&gt;p17</title>
<path fill="none" stroke="black" d="M1404.87,-583C1420.89,-577.61 1498.05,-551.64 1553.73,-532.91"/>
<polygon fill="black" stroke="black" points="1555.14,-536.12 1563.5,-529.62 1552.91,-529.49 1555.14,-536.12"/>
</g>
<!-- p14&#45;&gt;p16 -->
<g id="edge19" class="edge">
<title>p14&#45;&gt;p16</title>
<path fill="none" stroke="black" d="M1338.24,-700.07C1345.61,-686.86 1381.01,-623.42 1395.59,-597.29"/>
<polygon fill="black" stroke="black" points="1398.72,-598.86 1400.54,-588.42 1392.61,-595.45 1398.72,-598.86"/>
</g>
<!-- p15 -->
<g id="node19" class="node">
<title>p15</title>
<ellipse fill="black" stroke="black" cx="1401.89" cy="-664" rx="3.6" ry="3.6"/>
</g>
<!-- p15&#45;&gt;p16 -->
<g id="edge20" class="edge">
<title>p15&#45;&gt;p16</title>
<path fill="none" stroke="black" d="M1401.89,-660.08C1401.89,-650.12 1401.89,-617.17 1401.89,-598.75"/>
<polygon fill="black" stroke="black" points="1405.39,-598.61 1401.89,-588.61 1398.39,-598.61 1405.39,-598.61"/>
</g>
<!-- p19 -->
<g id="node21" class="node">
<title>p19</title>
<ellipse fill="black" stroke="black" cx="1593.89" cy="-425" rx="1.8" ry="1.8"/>
</g>
<!-- p17&#45;&gt;p19 -->
<g id="edge22" class="edge">
<title>p17&#45;&gt;p19</title>
<path fill="none" stroke="black" d="M1602.09,-493.82C1599.18,-488.33 1596.43,-482.09 1594.89,-476 1591.61,-463.04 1591.91,-447.58 1592.68,-437.31"/>
<polygon fill="black" stroke="black" points="1596.17,-437.57 1593.71,-427.26 1589.21,-436.86 1596.17,-437.57"/>
<text text-anchor="middle" x="1663.89" y="-464.8" font-family="Times,serif" font-size="14.00">freebayes_consensus_out</text>
</g>
<!-- p18 -->
<g id="node22" class="node">
<title>p18</title>
<ellipse fill="black" stroke="black" cx="1746.89" cy="-425" rx="1.8" ry="1.8"/>
</g>
<!-- p17&#45;&gt;p18 -->
<g id="edge23" class="edge">
<title>p17&#45;&gt;p18</title>
<path fill="none" stroke="black" d="M1703.43,-495.71C1714.35,-490.82 1724.57,-484.41 1732.89,-476 1743.11,-465.66 1746.01,-448.5 1746.76,-437.22"/>
<polygon fill="black" stroke="black" points="1750.26,-436.9 1746.93,-426.84 1743.26,-436.78 1750.26,-436.9"/>
</g>
<!-- p20&#45;&gt;p22 -->
<g id="edge25" class="edge">
<title>p20&#45;&gt;p22</title>
<path fill="none" stroke="black" d="M1529.96,-833.04C1534.12,-823.28 1548.89,-786.37 1548.89,-754.5 1548.89,-754.5 1548.89,-754.5 1548.89,-663 1548.89,-639.75 1555.97,-613.35 1560.71,-598.29"/>
<polygon fill="black" stroke="black" points="1564.09,-599.21 1563.93,-588.62 1557.45,-597 1564.09,-599.21"/>
</g>
<!-- p23 -->
<g id="node26" class="node">
<title>p23</title>
<ellipse fill="none" stroke="black" cx="2009.89" cy="-512" rx="167.07" ry="18"/>
<text text-anchor="middle" x="2009.89" y="-508.3" font-family="Times,serif" font-size="14.00">ncovIllumina:sequenceAnalysis:callVariants</text>
</g>
<!-- p22&#45;&gt;p23 -->
<g id="edge28" class="edge">
<title>p22&#45;&gt;p23</title>
<path fill="none" stroke="black" d="M1568.21,-583.47C1595.81,-579.07 1788.87,-548.26 1910.43,-528.87"/>
<polygon fill="black" stroke="black" points="1911.19,-532.29 1920.51,-527.26 1910.09,-525.38 1911.19,-532.29"/>
</g>
<!-- p21 -->
<g id="node25" class="node">
<title>p21</title>
<ellipse fill="black" stroke="black" cx="1580.89" cy="-664" rx="3.6" ry="3.6"/>
</g>
<!-- p21&#45;&gt;p22 -->
<g id="edge27" class="edge">
<title>p21&#45;&gt;p22</title>
<path fill="none" stroke="black" d="M1580.35,-660.44C1578.38,-650.94 1571.4,-617.32 1567.52,-598.68"/>
<polygon fill="black" stroke="black" points="1570.9,-597.73 1565.44,-588.65 1564.05,-599.15 1570.9,-597.73"/>
</g>
<!-- p24 -->
<g id="node27" class="node">
<title>p24</title>
<ellipse fill="black" stroke="black" cx="2009.89" cy="-425" rx="1.8" ry="1.8"/>
</g>
<!-- p23&#45;&gt;p24 -->
<g id="edge29" class="edge">
<title>p23&#45;&gt;p24</title>
<path fill="none" stroke="black" d="M2009.89,-493.8C2009.89,-476.92 2009.89,-451.66 2009.89,-437.22"/>
<polygon fill="black" stroke="black" points="2013.39,-437.08 2009.89,-427.08 2006.39,-437.08 2013.39,-437.08"/>
<text text-anchor="middle" x="2031.39" y="-464.8" font-family="Times,serif" font-size="14.00">variants</text>
</g>
<!-- p57 -->
<g id="node29" class="node">
<title>p57</title>
<ellipse fill="none" stroke="black" cx="1125.89" cy="-512" rx="181.97" ry="18"/>
<text text-anchor="middle" x="1125.89" y="-508.3" font-family="Times,serif" font-size="14.00">ncovIllumina:sequenceAnalysis:pangolinTyping</text>
</g>
<!-- p25&#45;&gt;p57 -->
<g id="edge31" class="edge">
<title>p25&#45;&gt;p57</title>
<path fill="none" stroke="black" d="M1125.89,-566.81C1125.89,-558.79 1125.89,-549.05 1125.89,-540.07"/>
<polygon fill="black" stroke="black" points="1129.39,-540.03 1125.89,-530.03 1122.39,-540.03 1129.39,-540.03"/>
</g>
<!-- p58 -->
<g id="node60" class="node">
<title>p58</title>
<ellipse fill="none" stroke="black" cx="766.89" cy="-512" rx="159.47" ry="18"/>
<text text-anchor="middle" x="766.89" y="-508.3" font-family="Times,serif" font-size="14.00">ncovIllumina:sequenceAnalysis:nextclade</text>
</g>
<!-- p25&#45;&gt;p58 -->
<g id="edge68" class="edge">
<title>p25&#45;&gt;p58</title>
<path fill="none" stroke="black" d="M1048.43,-568.68C990.75,-557.27 912.03,-541.71 852.49,-529.93"/>
<polygon fill="black" stroke="black" points="852.85,-526.43 842.36,-527.93 851.49,-533.3 852.85,-526.43"/>
</g>
<!-- p64 -->
<g id="node59" class="node">
<title>p64</title>
<ellipse fill="none" stroke="black" cx="1197.89" cy="-425" rx="3.5" ry="3.5"/>
<text text-anchor="middle" x="1170.39" y="-432.3" font-family="Times,serif" font-size="14.00">combine</text>
</g>
<!-- p57&#45;&gt;p64 -->
<g id="edge67" class="edge">
<title>p57&#45;&gt;p64</title>
<path fill="none" stroke="black" d="M1140.46,-493.8C1155.14,-476.47 1177.3,-450.31 1189.35,-436.08"/>
<polygon fill="black" stroke="black" points="1192.29,-438.02 1196.08,-428.13 1186.95,-433.5 1192.29,-438.02"/>
</g>
<!-- p26 -->
<g id="node30" class="node">
<title>p26</title>
<ellipse fill="black" stroke="black" cx="1331.89" cy="-664" rx="3.6" ry="3.6"/>
</g>
<!-- p26&#45;&gt;p27 -->
<g id="edge32" class="edge">
<title>p26&#45;&gt;p27</title>
<path fill="none" stroke="black" d="M1331.89,-660.08C1331.89,-650.12 1331.89,-617.17 1331.89,-598.75"/>
<polygon fill="black" stroke="black" points="1335.39,-598.61 1331.89,-588.61 1328.39,-598.61 1335.39,-598.61"/>
</g>
<!-- p30 -->
<g id="node32" class="node">
<title>p30</title>
<ellipse fill="none" stroke="black" cx="1379.89" cy="-512" rx="3.5" ry="3.5"/>
<text text-anchor="middle" x="1352.39" y="-519.3" font-family="Times,serif" font-size="14.00">combine</text>
</g>
<!-- p27&#45;&gt;p30 -->
<g id="edge34" class="edge">
<title>p27&#45;&gt;p30</title>
<path fill="none" stroke="black" d="M1333.48,-581.64C1339.46,-572.8 1360.77,-541.28 1372.31,-524.2"/>
<polygon fill="black" stroke="black" points="1375.53,-525.69 1378.23,-515.44 1369.73,-521.77 1375.53,-525.69"/>
</g>
<!-- p31 -->
<g id="node35" class="node">
<title>p31</title>
<ellipse fill="none" stroke="black" cx="1393.89" cy="-425" rx="174.67" ry="18"/>
<text text-anchor="middle" x="1393.89" y="-421.3" font-family="Times,serif" font-size="14.00">ncovIllumina:sequenceAnalysis:makeQCCSV</text>
</g>
<!-- p30&#45;&gt;p31 -->
<g id="edge38" class="edge">
<title>p30&#45;&gt;p31</title>
<path fill="none" stroke="black" d="M1380.35,-508.17C1381.75,-499.68 1386.02,-473.75 1389.4,-453.27"/>
<polygon fill="black" stroke="black" points="1392.89,-453.6 1391.06,-443.17 1385.98,-452.47 1392.89,-453.6"/>
</g>
<!-- p28&#45;&gt;p30 -->
<g id="edge36" class="edge">
<title>p28&#45;&gt;p30</title>
<path fill="none" stroke="black" d="M1433.24,-620.82C1431.2,-612.54 1424.42,-586.76 1414.89,-567 1410.71,-558.35 1396.37,-536.98 1387.39,-523.86"/>
<polygon fill="black" stroke="black" points="1390.01,-521.49 1381.45,-515.25 1384.25,-525.47 1390.01,-521.49"/>
</g>
<!-- p29 -->
<g id="node34" class="node">
<title>p29</title>
<ellipse fill="black" stroke="black" cx="1376.89" cy="-585" rx="3.6" ry="3.6"/>
</g>
<!-- p29&#45;&gt;p30 -->
<g id="edge37" class="edge">
<title>p29&#45;&gt;p30</title>
<path fill="none" stroke="black" d="M1377,-581.3C1377.38,-572.3 1378.63,-542.86 1379.35,-525.71"/>
<polygon fill="black" stroke="black" points="1382.85,-525.84 1379.77,-515.7 1375.85,-525.54 1382.85,-525.84"/>
</g>
<!-- p33 -->
<g id="node36" class="node">
<title>p33</title>
<ellipse fill="none" stroke="black" cx="1390.89" cy="-352" rx="3.5" ry="3.5"/>
<text text-anchor="middle" x="1409.89" y="-359.3" font-family="Times,serif" font-size="14.00">splitCsv</text>
</g>
<!-- p31&#45;&gt;p33 -->
<g id="edge39" class="edge">
<title>p31&#45;&gt;p33</title>
<path fill="none" stroke="black" d="M1393.16,-406.81C1392.63,-394.17 1391.91,-377.26 1391.43,-365.79"/>
<polygon fill="black" stroke="black" points="1394.92,-365.52 1391,-355.68 1387.93,-365.82 1394.92,-365.52"/>
</g>
<!-- p32 -->
<g id="node37" class="node">
<title>p32</title>
<ellipse fill="black" stroke="black" cx="1415.89" cy="-352" rx="1.8" ry="1.8"/>
</g>
<!-- p31&#45;&gt;p32 -->
<g id="edge40" class="edge">
<title>p31&#45;&gt;p32</title>
<path fill="none" stroke="black" d="M1399.21,-406.81C1403.41,-393.27 1409.12,-374.84 1412.65,-363.44"/>
<polygon fill="black" stroke="black" points="1416.01,-364.42 1415.63,-353.83 1409.33,-362.34 1416.01,-364.42"/>
</g>
<!-- p34 -->
<g id="node38" class="node">
<title>p34</title>
<ellipse fill="none" stroke="black" cx="1390.89" cy="-293.5" rx="3.5" ry="3.5"/>
<text text-anchor="middle" x="1368.89" y="-300.8" font-family="Times,serif" font-size="14.00">unique</text>
</g>
<!-- p33&#45;&gt;p34 -->
<g id="edge41" class="edge">
<title>p33&#45;&gt;p34</title>
<path fill="none" stroke="black" d="M1390.89,-348.27C1390.89,-340.99 1390.89,-320.71 1390.89,-307.25"/>
<polygon fill="black" stroke="black" points="1394.39,-307.07 1390.89,-297.07 1387.39,-307.07 1394.39,-307.07"/>
</g>
<!-- p35 -->
<g id="node39" class="node">
<title>p35</title>
<ellipse fill="none" stroke="black" cx="1390.89" cy="-249.5" rx="3.5" ry="3.5"/>
<text text-anchor="middle" x="1368.89" y="-256.8" font-family="Times,serif" font-size="14.00">branch</text>
</g>
<!-- p34&#45;&gt;p35 -->
<g id="edge42" class="edge">
<title>p34&#45;&gt;p35</title>
<path fill="none" stroke="black" d="M1390.89,-289.74C1390.89,-284.47 1390.89,-272.63 1390.89,-263.32"/>
<polygon fill="black" stroke="black" points="1394.39,-263.32 1390.89,-253.32 1387.39,-263.32 1394.39,-263.32"/>
</g>
<!-- p36 -->
<g id="node40" class="node">
<title>p36</title>
<ellipse fill="none" stroke="black" cx="1390.89" cy="-205.4" rx="3.5" ry="3.5"/>
<text text-anchor="middle" x="1369.39" y="-212.7" font-family="Times,serif" font-size="14.00">concat</text>
</g>
<!-- p35&#45;&gt;p36 -->
<g id="edge43" class="edge">
<title>p35&#45;&gt;p36</title>
<path fill="none" stroke="black" d="M1388.26,-247.1C1384.36,-242.56 1383.23,-227.92 1384.86,-217.5"/>
<polygon fill="black" stroke="black" points="1388.23,-218.44 1388.22,-207.85 1381.62,-216.14 1388.23,-218.44"/>
</g>
<!-- p35&#45;&gt;p36 -->
<g id="edge45" class="edge">
<title>p35&#45;&gt;p36</title>
<path fill="none" stroke="black" d="M1393.52,-247.1C1397.41,-242.56 1398.55,-227.92 1396.92,-217.5"/>
<polygon fill="black" stroke="black" points="1400.15,-216.14 1393.56,-207.85 1393.54,-218.44 1400.15,-216.14"/>
</g>
<!-- p37 -->
<g id="node41" class="node">
<title>p37</title>
<ellipse fill="none" stroke="black" cx="1356.89" cy="-161.2" rx="3.5" ry="3.5"/>
<text text-anchor="middle" x="1335.39" y="-168.5" font-family="Times,serif" font-size="14.00">concat</text>
</g>
<!-- p35&#45;&gt;p37 -->
<g id="edge44" class="edge">
<title>p35&#45;&gt;p37</title>
<path fill="none" stroke="black" d="M1389.91,-246.01C1385.79,-235.57 1369.77,-194.89 1361.65,-174.3"/>
<polygon fill="black" stroke="black" points="1364.86,-172.89 1357.94,-164.87 1358.35,-175.46 1364.86,-172.89"/>
</g>
<!-- p50 -->
<g id="node52" class="node">
<title>p50</title>
<ellipse fill="none" stroke="black" cx="1568.89" cy="-205.4" rx="3.5" ry="3.5"/>
<text text-anchor="middle" x="1552.89" y="-212.7" font-family="Times,serif" font-size="14.00">map</text>
</g>
<!-- p35&#45;&gt;p50 -->
<g id="edge60" class="edge">
<title>p35&#45;&gt;p50</title>
<path fill="none" stroke="black" d="M1393.98,-247.77C1413.39,-243.18 1518.88,-218.23 1555.98,-209.45"/>
<polygon fill="black" stroke="black" points="1556.79,-212.86 1565.71,-207.15 1555.18,-206.05 1556.79,-212.86"/>
</g>
<!-- p36&#45;&gt;p37 -->
<g id="edge46" class="edge">
<title>p36&#45;&gt;p37</title>
<path fill="none" stroke="black" d="M1389.06,-202.13C1384.59,-196.58 1372.89,-182.07 1364.91,-172.15"/>
<polygon fill="black" stroke="black" points="1367.56,-169.87 1358.56,-164.28 1362.11,-174.26 1367.56,-169.87"/>
</g>
<!-- p38 -->
<g id="node42" class="node">
<title>p38</title>
<ellipse fill="none" stroke="black" cx="1248.89" cy="-117.1" rx="3.5" ry="3.5"/>
<text text-anchor="middle" x="1229.39" y="-124.4" font-family="Times,serif" font-size="14.00">toList</text>
</g>
<!-- p37&#45;&gt;p38 -->
<g id="edge47" class="edge">
<title>p37&#45;&gt;p38</title>
<path fill="none" stroke="black" d="M1353.77,-158.99C1340.22,-153.7 1285.97,-132.56 1261.26,-122.92"/>
<polygon fill="black" stroke="black" points="1262.4,-119.61 1251.81,-119.24 1259.86,-126.13 1262.4,-119.61"/>
</g>
<!-- p39 -->
<g id="node43" class="node">
<title>p39</title>
<ellipse fill="none" stroke="black" cx="1230.89" cy="-58.6" rx="207.96" ry="18"/>
<text text-anchor="middle" x="1230.89" y="-54.9" font-family="Times,serif" font-size="14.00">ncovIllumina:sequenceAnalysis:writeQCSummaryCSV</text>
</g>
<!-- p38&#45;&gt;p39 -->
<g id="edge48" class="edge">
<title>p38&#45;&gt;p39</title>
<path fill="none" stroke="black" d="M1248.11,-113.67C1246.58,-108.85 1242.99,-97.59 1239.48,-86.59"/>
<polygon fill="black" stroke="black" points="1242.72,-85.21 1236.35,-76.74 1236.05,-87.33 1242.72,-85.21"/>
</g>
<!-- p40&#45;&gt;p42 -->
<g id="edge50" class="edge">
<title>p40&#45;&gt;p42</title>
<path fill="none" stroke="black" d="M1032.73,-751.81C1016.1,-748.02 937.82,-728.16 896.89,-682 875.26,-657.61 866.65,-618.78 863.51,-598.8"/>
<polygon fill="black" stroke="black" points="866.96,-598.18 862.15,-588.73 860.02,-599.11 866.96,-598.18"/>
</g>
<!-- p43 -->
<g id="node47" class="node">
<title>p43</title>
<ellipse fill="none" stroke="black" cx="400.89" cy="-512" rx="188.47" ry="18"/>
<text text-anchor="middle" x="400.89" y="-508.3" font-family="Times,serif" font-size="14.00">ncovIllumina:sequenceAnalysis:mappingStatistics</text>
</g>
<!-- p42&#45;&gt;p43 -->
<g id="edge53" class="edge">
<title>p42&#45;&gt;p43</title>
<path fill="none" stroke="black" d="M858.7,-583.51C831.2,-579.27 632.19,-548.62 505.77,-529.15"/>
<polygon fill="black" stroke="black" points="506.08,-525.66 495.66,-527.6 505.01,-532.58 506.08,-525.66"/>
</g>
<!-- p41 -->
<g id="node46" class="node">
<title>p41</title>
<ellipse fill="black" stroke="black" cx="845.89" cy="-664" rx="3.6" ry="3.6"/>
</g>
<!-- p41&#45;&gt;p42 -->
<g id="edge51" class="edge">
<title>p41&#45;&gt;p42</title>
<path fill="none" stroke="black" d="M846.42,-660.44C848.39,-650.94 855.38,-617.32 859.25,-598.68"/>
<polygon fill="black" stroke="black" points="862.73,-599.15 861.34,-588.65 855.87,-597.73 862.73,-599.15"/>
</g>
<!-- p45 -->
<g id="node48" class="node">
<title>p45</title>
<ellipse fill="none" stroke="black" cx="283.89" cy="-425" rx="3.5" ry="3.5"/>
<text text-anchor="middle" x="261.89" y="-432.3" font-family="Times,serif" font-size="14.00">collect</text>
</g>
<!-- p43&#45;&gt;p45 -->
<g id="edge54" class="edge">
<title>p43&#45;&gt;p45</title>
<path fill="none" stroke="black" d="M377.49,-494C352.18,-475.61 312.94,-447.11 294.35,-433.6"/>
<polygon fill="black" stroke="black" points="296.35,-430.73 286.2,-427.68 292.23,-436.39 296.35,-430.73"/>
</g>
<!-- p45&#45;&gt;p47 -->
<g id="edge56" class="edge">
<title>p45&#45;&gt;p47</title>
<path fill="none" stroke="black" d="M281.44,-422.24C272.6,-415.9 241.53,-393.62 216.99,-376.02"/>
<polygon fill="black" stroke="black" points="218.8,-373.01 208.63,-370.03 214.72,-378.7 218.8,-373.01"/>
</g>
<!-- p49 -->
<g id="node50" class="node">
<title>p49</title>
<ellipse fill="black" stroke="black" cx="172.89" cy="-293.5" rx="1.8" ry="1.8"/>
</g>
<!-- p47&#45;&gt;p49 -->
<g id="edge58" class="edge">
<title>p47&#45;&gt;p49</title>
<path fill="none" stroke="black" d="M181.22,-333.74C179.27,-324.54 176.92,-313.5 175.22,-305.47"/>
<polygon fill="black" stroke="black" points="178.6,-304.56 173.1,-295.5 171.75,-306.01 178.6,-304.56"/>
</g>
<!-- p48 -->
<g id="node51" class="node">
<title>p48</title>
<ellipse fill="black" stroke="black" cx="197.89" cy="-293.5" rx="1.8" ry="1.8"/>
</g>
<!-- p47&#45;&gt;p48 -->
<g id="edge59" class="edge">
<title>p47&#45;&gt;p48</title>
<path fill="none" stroke="black" d="M188.86,-333.74C190.97,-324.54 193.52,-313.5 195.36,-305.47"/>
<polygon fill="black" stroke="black" points="198.82,-306.03 197.66,-295.5 192,-304.47 198.82,-306.03"/>
</g>
<!-- p52 -->
<g id="node53" class="node">
<title>p52</title>
<ellipse fill="none" stroke="black" cx="1596.89" cy="-161.2" rx="3.5" ry="3.5"/>
<text text-anchor="middle" x="1582.39" y="-168.5" font-family="Times,serif" font-size="14.00">join</text>
</g>
<!-- p50&#45;&gt;p52 -->
<g id="edge61" class="edge">
<title>p50&#45;&gt;p52</title>
<path fill="none" stroke="black" d="M1570.39,-202.13C1573.93,-196.8 1582.96,-183.18 1589.5,-173.33"/>
<polygon fill="black" stroke="black" points="1592.62,-174.96 1595.23,-164.69 1586.79,-171.09 1592.62,-174.96"/>
</g>
<!-- p54 -->
<g id="node55" class="node">
<title>p54</title>
<ellipse fill="none" stroke="black" cx="1625.89" cy="-117.1" rx="3.5" ry="3.5"/>
<text text-anchor="middle" x="1611.39" y="-124.4" font-family="Times,serif" font-size="14.00">join</text>
</g>
<!-- p52&#45;&gt;p54 -->
<g id="edge63" class="edge">
<title>p52&#45;&gt;p54</title>
<path fill="none" stroke="black" d="M1598.45,-157.94C1602.15,-152.56 1611.67,-138.75 1618.45,-128.89"/>
<polygon fill="black" stroke="black" points="1621.39,-130.8 1624.18,-120.58 1615.62,-126.83 1621.39,-130.8"/>
</g>
<!-- p51 -->
<g id="node54" class="node">
<title>p51</title>
<ellipse fill="black" stroke="black" cx="1596.89" cy="-205.4" rx="3.6" ry="3.6"/>
</g>
<!-- p51&#45;&gt;p52 -->
<g id="edge62" class="edge">
<title>p51&#45;&gt;p52</title>
<path fill="none" stroke="black" d="M1596.89,-201.63C1596.89,-196.33 1596.89,-184.43 1596.89,-175.08"/>
<polygon fill="black" stroke="black" points="1600.39,-175.03 1596.89,-165.03 1593.39,-175.03 1600.39,-175.03"/>
</g>
<!-- p55 -->
<g id="node57" class="node">
<title>p55</title>
<ellipse fill="none" stroke="black" cx="1635.89" cy="-58.6" rx="179.27" ry="18"/>
<text text-anchor="middle" x="1635.89" y="-54.9" font-family="Times,serif" font-size="14.00">ncovIllumina:sequenceAnalysis:collateSamples</text>
</g>
<!-- p54&#45;&gt;p55 -->
<g id="edge65" class="edge">
<title>p54&#45;&gt;p55</title>
<path fill="none" stroke="black" d="M1626.37,-113.37C1627.24,-108.43 1629.18,-97.5 1631.08,-86.77"/>
<polygon fill="black" stroke="black" points="1634.55,-87.21 1632.85,-76.75 1627.66,-85.99 1634.55,-87.21"/>
</g>
<!-- p53 -->
<g id="node56" class="node">
<title>p53</title>
<ellipse fill="black" stroke="black" cx="1625.89" cy="-161.2" rx="3.6" ry="3.6"/>
</g>
<!-- p53&#45;&gt;p54 -->
<g id="edge64" class="edge">
<title>p53&#45;&gt;p54</title>
<path fill="none" stroke="black" d="M1625.89,-157.44C1625.89,-152.15 1625.89,-140.28 1625.89,-130.95"/>
<polygon fill="black" stroke="black" points="1629.39,-130.93 1625.89,-120.93 1622.39,-130.93 1629.39,-130.93"/>
</g>
<!-- p56 -->
<g id="node58" class="node">
<title>p56</title>
<ellipse fill="black" stroke="black" cx="1635.89" cy="-1.8" rx="1.8" ry="1.8"/>
</g>
<!-- p55&#45;&gt;p56 -->
<g id="edge66" class="edge">
<title>p55&#45;&gt;p56</title>
<path fill="none" stroke="black" d="M1635.89,-40.56C1635.89,-31.87 1635.89,-21.56 1635.89,-13.9"/>
<polygon fill="black" stroke="black" points="1639.39,-13.76 1635.89,-3.76 1632.39,-13.76 1639.39,-13.76"/>
</g>
<!-- p65 -->
<g id="node66" class="node">
<title>p65</title>
<ellipse fill="none" stroke="black" cx="1197.89" cy="-352" rx="168.97" ry="18"/>
<text text-anchor="middle" x="1197.89" y="-348.3" font-family="Times,serif" font-size="14.00">ncovIllumina:sequenceAnalysis:makeReport</text>
</g>
<!-- p64&#45;&gt;p65 -->
<g id="edge73" class="edge">
<title>p64&#45;&gt;p65</title>
<path fill="none" stroke="black" d="M1197.89,-421.3C1197.89,-414.53 1197.89,-396.2 1197.89,-380.23"/>
<polygon fill="black" stroke="black" points="1201.39,-380.22 1197.89,-370.22 1194.39,-380.22 1201.39,-380.22"/>
</g>
<!-- p59 -->
<g id="node61" class="node">
<title>p59</title>
<ellipse fill="black" stroke="black" cx="766.89" cy="-425" rx="1.8" ry="1.8"/>
</g>
<!-- p58&#45;&gt;p59 -->
<g id="edge69" class="edge">
<title>p58&#45;&gt;p59</title>
<path fill="none" stroke="black" d="M766.89,-493.8C766.89,-476.92 766.89,-451.66 766.89,-437.22"/>
<polygon fill="black" stroke="black" points="770.39,-437.08 766.89,-427.08 763.39,-437.08 770.39,-437.08"/>
</g>
<!-- p60 -->
<g id="node62" class="node">
<title>p60</title>
<ellipse fill="none" stroke="black" cx="1284.89" cy="-1106" rx="201.46" ry="18"/>
<text text-anchor="middle" x="1284.89" y="-1102.3" font-family="Times,serif" font-size="14.00">ncovIllumina:sequenceAnalysis:getVariantDefinitions</text>
</g>
<!-- p61 -->
<g id="node63" class="node">
<title>p61</title>
<ellipse fill="black" stroke="black" cx="1284.89" cy="-1033" rx="1.8" ry="1.8"/>
</g>
<!-- p60&#45;&gt;p61 -->
<g id="edge70" class="edge">
<title>p60&#45;&gt;p61</title>
<path fill="none" stroke="black" d="M1284.89,-1087.81C1284.89,-1074.57 1284.89,-1056.65 1284.89,-1045.21"/>
<polygon fill="black" stroke="black" points="1288.39,-1044.83 1284.89,-1034.83 1281.39,-1044.83 1288.39,-1044.83"/>
</g>
<!-- p62 -->
<g id="node64" class="node">
<title>p62</title>
<ellipse fill="black" stroke="black" cx="1329.89" cy="-512" rx="3.6" ry="3.6"/>
</g>
<!-- p62&#45;&gt;p64 -->
<g id="edge71" class="edge">
<title>p62&#45;&gt;p64</title>
<path fill="none" stroke="black" d="M1328.36,-508.26C1326.21,-504.61 1321.97,-498.12 1316.89,-494 1275.97,-460.82 1250.16,-476.96 1209.89,-443 1208.06,-441.46 1206.38,-439.59 1204.89,-437.65"/>
<polygon fill="black" stroke="black" points="1207.56,-435.32 1199.25,-428.74 1201.64,-439.06 1207.56,-435.32"/>
</g>
<!-- p63 -->
<g id="node65" class="node">
<title>p63</title>
<ellipse fill="black" stroke="black" cx="1354.89" cy="-512" rx="3.6" ry="3.6"/>
</g>
<!-- p63&#45;&gt;p64 -->
<g id="edge72" class="edge">
<title>p63&#45;&gt;p64</title>
<path fill="none" stroke="black" d="M1353.52,-508.27C1351.57,-504.63 1347.71,-498.14 1342.89,-494 1318.01,-472.63 1307.54,-472.65 1276.89,-461 1248.06,-450.05 1235.17,-460.65 1209.89,-443 1207.67,-441.45 1205.73,-439.36 1204.08,-437.17"/>
<polygon fill="black" stroke="black" points="1207,-435.22 1198.91,-428.38 1200.96,-438.77 1207,-435.22"/>
</g>
<!-- p66 -->
<g id="node67" class="node">
<title>p66</title>
<ellipse fill="none" stroke="black" cx="1197.89" cy="-293.5" rx="3.5" ry="3.5"/>
<text text-anchor="middle" x="1165.39" y="-300.8" font-family="Times,serif" font-size="14.00">collectFile</text>
</g>
<!-- p65&#45;&gt;p66 -->
<g id="edge74" class="edge">
<title>p65&#45;&gt;p66</title>
<path fill="none" stroke="black" d="M1197.89,-333.74C1197.89,-325.16 1197.89,-314.97 1197.89,-307.12"/>
<polygon fill="black" stroke="black" points="1201.39,-307.06 1197.89,-297.06 1194.39,-307.06 1201.39,-307.06"/>
</g>
<!-- p67 -->
<g id="node68" class="node">
<title>p67</title>
<ellipse fill="black" stroke="black" cx="1197.89" cy="-249.5" rx="1.8" ry="1.8"/>
</g>
<!-- p66&#45;&gt;p67 -->
<g id="edge75" class="edge">
<title>p66&#45;&gt;p67</title>
<path fill="none" stroke="black" d="M1197.89,-289.74C1197.89,-284.19 1197.89,-271.36 1197.89,-261.87"/>
<polygon fill="black" stroke="black" points="1201.39,-261.8 1197.89,-251.8 1194.39,-261.8 1201.39,-261.8"/>
</g>
</g>
</svg>
