<?xml version="1.0" encoding="UTF-8" standalone="no"?>
<!DOCTYPE svg PUBLIC "-//W3C//DTD SVG 1.1//EN"
 "http://www.w3.org/Graphics/SVG/1.1/DTD/svg11.dtd">
<!-- Generated by graphviz version 2.43.0 (0)
 -->
<!-- Title: pipeline_dag Pages: 1 -->
<svg width="2164pt" height="1146pt"
 viewBox="0.00 0.00 2164.01 1146.00" xmlns="http://www.w3.org/2000/svg" xmlns:xlink="http://www.w3.org/1999/xlink">
<g id="graph0" class="graph" transform="scale(1 1) rotate(0) translate(4 1142)">
<title>pipeline_dag</title>
<polygon fill="white" stroke="transparent" points="-4,4 -4,-1142 2160.01,-1142 2160.01,4 -4,4"/>
<!-- p0 -->
<g id="node1" class="node">
<title>p0</title>
<ellipse fill="black" stroke="black" cx="819.38" cy="-1119.4" rx="3.6" ry="3.6"/>
<text text-anchor="middle" x="765.78" y="-1126.8" font-family="Times,serif" font-size="14.00">Channel.fromPath</text>
</g>
<!-- p1 -->
<g id="node2" class="node">
<title>p1</title>
<ellipse fill="none" stroke="black" cx="819.38" cy="-1046.9" rx="3.5" ry="3.5"/>
<text text-anchor="middle" x="802.38" y="-1054.2" font-family="Times,serif" font-size="14.00">filter</text>
</g>
<!-- p0&#45;&gt;p1 -->
<g id="edge1" class="edge">
<title>p0&#45;&gt;p1</title>
<path fill="none" stroke="black" d="M819.38,-1115.72C819.38,-1106.82 819.38,-1077.84 819.38,-1060.77"/>
<polygon fill="black" stroke="black" points="822.88,-1060.58 819.38,-1050.58 815.88,-1060.58 822.88,-1060.58"/>
</g>
<!-- p2 -->
<g id="node3" class="node">
<title>p2</title>
<ellipse fill="none" stroke="black" cx="819.38" cy="-1002.9" rx="3.5" ry="3.5"/>
<text text-anchor="middle" x="802.38" y="-1010.2" font-family="Times,serif" font-size="14.00">filter</text>
</g>
<!-- p1&#45;&gt;p2 -->
<g id="edge2" class="edge">
<title>p1&#45;&gt;p2</title>
<path fill="none" stroke="black" d="M819.38,-1043.14C819.38,-1037.87 819.38,-1026.03 819.38,-1016.72"/>
<polygon fill="black" stroke="black" points="822.88,-1016.72 819.38,-1006.72 815.88,-1016.72 822.88,-1016.72"/>
</g>
<!-- p9 -->
<g id="node4" class="node">
<title>p9</title>
<ellipse fill="none" stroke="black" cx="819.38" cy="-944.9" rx="3.5" ry="3.5"/>
<text text-anchor="middle" x="798.38" y="-952.2" font-family="Times,serif" font-size="14.00">flatten</text>
</g>
<!-- p2&#45;&gt;p9 -->
<g id="edge3" class="edge">
<title>p2&#45;&gt;p9</title>
<path fill="none" stroke="black" d="M819.38,-999.2C819.38,-991.98 819.38,-971.88 819.38,-958.53"/>
<polygon fill="black" stroke="black" points="822.88,-958.44 819.38,-948.44 815.88,-958.44 822.88,-958.44"/>
<text text-anchor="middle" x="864.88" y="-970.2" font-family="Times,serif" font-size="14.00">ch_runFastqDirs</text>
</g>
<!-- p10 -->
<g id="node13" class="node">
<title>p10</title>
<ellipse fill="none" stroke="black" cx="819.38" cy="-886.4" rx="243.16" ry="18"/>
<text text-anchor="middle" x="819.38" y="-882.7" font-family="Times,serif" font-size="14.00">articNcovNanopore:sequenceAnalysisNanopolish:articGuppyPlex</text>
</g>
<!-- p9&#45;&gt;p10 -->
<g id="edge9" class="edge">
<title>p9&#45;&gt;p10</title>
<path fill="none" stroke="black" d="M819.38,-941.17C819.38,-936.23 819.38,-925.3 819.38,-914.57"/>
<polygon fill="black" stroke="black" points="822.88,-914.55 819.38,-904.55 815.88,-914.55 822.88,-914.55"/>
</g>
<!-- p3 -->
<g id="node5" class="node">
<title>p3</title>
<ellipse fill="black" stroke="black" cx="852.38" cy="-1119.4" rx="3.6" ry="3.6"/>
<text text-anchor="middle" x="798.78" y="-1104.6" font-family="Times,serif" font-size="14.00">Channel.fromPath</text>
</g>
<!-- p4 -->
<g id="node6" class="node">
<title>p4</title>
<ellipse fill="black" stroke="black" cx="852.38" cy="-1046.9" rx="1.8" ry="1.8"/>
</g>
<!-- p3&#45;&gt;p4 -->
<g id="edge4" class="edge">
<title>p3&#45;&gt;p4</title>
<path fill="none" stroke="black" d="M852.38,-1115.72C852.38,-1106.49 852.38,-1075.66 852.38,-1058.93"/>
<polygon fill="black" stroke="black" points="855.88,-1058.86 852.38,-1048.86 848.88,-1058.86 855.88,-1058.86"/>
<text text-anchor="middle" x="887.38" y="-1072.2" font-family="Times,serif" font-size="14.00">ch_fast5Pass</text>
</g>
<!-- p5 -->
<g id="node7" class="node">
<title>p5</title>
<ellipse fill="black" stroke="black" cx="945.38" cy="-1119.4" rx="3.6" ry="3.6"/>
<text text-anchor="middle" x="891.78" y="-1126.8" font-family="Times,serif" font-size="14.00">Channel.fromPath</text>
</g>
<!-- p6 -->
<g id="node8" class="node">
<title>p6</title>
<ellipse fill="black" stroke="black" cx="945.38" cy="-1046.9" rx="1.8" ry="1.8"/>
</g>
<!-- p5&#45;&gt;p6 -->
<g id="edge5" class="edge">
<title>p5&#45;&gt;p6</title>
<path fill="none" stroke="black" d="M945.38,-1115.72C945.38,-1106.49 945.38,-1075.66 945.38,-1058.93"/>
<polygon fill="black" stroke="black" points="948.88,-1058.86 945.38,-1048.86 941.88,-1058.86 948.88,-1058.86"/>
<text text-anchor="middle" x="991.38" y="-1072.2" font-family="Times,serif" font-size="14.00">ch_seqSummary</text>
</g>
<!-- p7 -->
<g id="node9" class="node">
<title>p7</title>
<ellipse fill="none" stroke="black" cx="529.38" cy="-813.4" rx="268.35" ry="18"/>
<text text-anchor="middle" x="529.38" y="-809.7" font-family="Times,serif" font-size="14.00">articNcovNanopore:sequenceAnalysisNanopolish:articDownloadScheme</text>
</g>
<!-- p28 -->
<g id="node10" class="node">
<title>p28</title>
<ellipse fill="none" stroke="black" cx="482.38" cy="-454.5" rx="3.5" ry="3.5"/>
<text text-anchor="middle" x="454.88" y="-461.8" font-family="Times,serif" font-size="14.00">combine</text>
</g>
<!-- p7&#45;&gt;p28 -->
<g id="edge6" class="edge">
<title>p7&#45;&gt;p28</title>
<path fill="none" stroke="black" d="M460.47,-795.89C443.15,-787.43 429.38,-774.75 429.38,-755.8 429.38,-755.8 429.38,-755.8 429.38,-512 429.38,-488.19 454.72,-470.29 470.36,-461.52"/>
<polygon fill="black" stroke="black" points="472.25,-464.48 479.53,-456.78 469.04,-458.26 472.25,-464.48"/>
<text text-anchor="middle" x="488.38" y="-658.8" font-family="Times,serif" font-size="14.00">ch_nanopore_reffasta</text>
</g>
<!-- p8 -->
<g id="node11" class="node">
<title>p8</title>
<ellipse fill="black" stroke="black" cx="770.38" cy="-754.8" rx="1.8" ry="1.8"/>
</g>
<!-- p7&#45;&gt;p8 -->
<g id="edge7" class="edge">
<title>p7&#45;&gt;p8</title>
<path fill="none" stroke="black" d="M601.54,-796.01C644.74,-786.09 700.99,-772.97 759.21,-758.59"/>
<polygon fill="black" stroke="black" points="760.09,-761.98 768.95,-756.18 758.41,-755.19 760.09,-761.98"/>
</g>
<!-- p13 -->
<g id="node12" class="node">
<title>p13</title>
<ellipse fill="none" stroke="black" cx="806.38" cy="-754.8" rx="3.5" ry="3.5"/>
<text text-anchor="middle" x="778.88" y="-762.1" font-family="Times,serif" font-size="14.00">combine</text>
</g>
<!-- p7&#45;&gt;p13 -->
<g id="edge8" class="edge">
<title>p7&#45;&gt;p13</title>
<path fill="none" stroke="black" d="M608.75,-796.18C673.96,-782.86 760.68,-765.14 793.27,-758.48"/>
<polygon fill="black" stroke="black" points="794.11,-761.88 803.2,-756.45 792.7,-755.02 794.11,-761.88"/>
</g>
<!-- p29 -->
<g id="node31" class="node">
<title>p29</title>
<ellipse fill="none" stroke="black" cx="482.38" cy="-396" rx="237.46" ry="18"/>
<text text-anchor="middle" x="482.38" y="-392.3" font-family="Times,serif" font-size="14.00">articNcovNanopore:sequenceAnalysisNanopolish:makeQCCSV</text>
</g>
<!-- p28&#45;&gt;p29 -->
<g id="edge29" class="edge">
<title>p28&#45;&gt;p29</title>
<path fill="none" stroke="black" d="M482.38,-450.77C482.38,-445.83 482.38,-434.9 482.38,-424.17"/>
<polygon fill="black" stroke="black" points="485.88,-424.15 482.38,-414.15 478.88,-424.15 485.88,-424.15"/>
</g>
<!-- p16 -->
<g id="node16" class="node">
<title>p16</title>
<ellipse fill="none" stroke="black" cx="765.38" cy="-710.6" rx="3.5" ry="3.5"/>
<text text-anchor="middle" x="737.88" y="-717.9" font-family="Times,serif" font-size="14.00">combine</text>
</g>
<!-- p13&#45;&gt;p16 -->
<g id="edge13" class="edge">
<title>p13&#45;&gt;p16</title>
<path fill="none" stroke="black" d="M804.4,-751.76C799.11,-746.32 784.37,-731.15 774.6,-721.09"/>
<polygon fill="black" stroke="black" points="776.91,-718.45 767.43,-713.71 771.89,-723.33 776.91,-718.45"/>
</g>
<!-- p11 -->
<g id="node14" class="node">
<title>p11</title>
<ellipse fill="none" stroke="black" cx="819.38" cy="-813.4" rx="3.5" ry="3.5"/>
<text text-anchor="middle" x="829.38" y="-798.7" font-family="Times,serif" font-size="14.00">filter</text>
</g>
<!-- p10&#45;&gt;p11 -->
<g id="edge10" class="edge">
<title>p10&#45;&gt;p11</title>
<path fill="none" stroke="black" d="M819.38,-868.21C819.38,-855.57 819.38,-838.66 819.38,-827.19"/>
<polygon fill="black" stroke="black" points="822.88,-827.08 819.38,-817.08 815.88,-827.08 822.88,-827.08"/>
</g>
<!-- p11&#45;&gt;p13 -->
<g id="edge11" class="edge">
<title>p11&#45;&gt;p13</title>
<path fill="none" stroke="black" d="M818.75,-809.67C817.06,-802.3 812.31,-781.64 809.21,-768.15"/>
<polygon fill="black" stroke="black" points="812.62,-767.33 806.97,-758.37 805.79,-768.9 812.62,-767.33"/>
</g>
<!-- p12 -->
<g id="node15" class="node">
<title>p12</title>
<ellipse fill="black" stroke="black" cx="844.38" cy="-813.4" rx="3.6" ry="3.6"/>
</g>
<!-- p12&#45;&gt;p13 -->
<g id="edge12" class="edge">
<title>p12&#45;&gt;p13</title>
<path fill="none" stroke="black" d="M843.22,-809.64C840.54,-803.42 833.53,-787.94 825.38,-776.4 822.57,-772.43 819.06,-768.42 815.83,-765.01"/>
<polygon fill="black" stroke="black" points="818.13,-762.37 808.57,-757.81 813.2,-767.34 818.13,-762.37"/>
</g>
<!-- p19 -->
<g id="node19" class="node">
<title>p19</title>
<ellipse fill="none" stroke="black" cx="752.38" cy="-662.5" rx="3.5" ry="3.5"/>
<text text-anchor="middle" x="724.88" y="-669.8" font-family="Times,serif" font-size="14.00">combine</text>
</g>
<!-- p16&#45;&gt;p19 -->
<g id="edge16" class="edge">
<title>p16&#45;&gt;p19</title>
<path fill="none" stroke="black" d="M764.68,-707.12C763.05,-701.36 758.93,-686.74 755.9,-676.01"/>
<polygon fill="black" stroke="black" points="759.23,-674.89 753.14,-666.22 752.49,-676.79 759.23,-674.89"/>
</g>
<!-- p14 -->
<g id="node17" class="node">
<title>p14</title>
<ellipse fill="black" stroke="black" cx="722.38" cy="-754.8" rx="3.6" ry="3.6"/>
</g>
<!-- p14&#45;&gt;p16 -->
<g id="edge14" class="edge">
<title>p14&#45;&gt;p16</title>
<path fill="none" stroke="black" d="M724.45,-751.76C730.06,-746.26 745.77,-730.84 756.02,-720.78"/>
<polygon fill="black" stroke="black" points="758.54,-723.22 763.22,-713.71 753.63,-718.22 758.54,-723.22"/>
</g>
<!-- p15 -->
<g id="node18" class="node">
<title>p15</title>
<ellipse fill="black" stroke="black" cx="747.38" cy="-754.8" rx="3.6" ry="3.6"/>
</g>
<!-- p15&#45;&gt;p16 -->
<g id="edge15" class="edge">
<title>p15&#45;&gt;p16</title>
<path fill="none" stroke="black" d="M748.45,-751.29C750.73,-745.94 756.19,-733.13 760.3,-723.5"/>
<polygon fill="black" stroke="black" points="763.63,-724.62 764.33,-714.05 757.19,-721.87 763.63,-724.62"/>
</g>
<!-- p20 -->
<g id="node22" class="node">
<title>p20</title>
<ellipse fill="none" stroke="black" cx="822.38" cy="-600" rx="274.85" ry="18"/>
<text text-anchor="middle" x="822.38" y="-596.3" font-family="Times,serif" font-size="14.00">articNcovNanopore:sequenceAnalysisNanopolish:articMinIONNanopolish</text>
</g>
<!-- p19&#45;&gt;p20 -->
<g id="edge19" class="edge">
<title>p19&#45;&gt;p20</title>
<path fill="none" stroke="black" d="M754.71,-659.49C760.97,-654.07 778.76,-638.7 794.53,-625.07"/>
<polygon fill="black" stroke="black" points="797.24,-627.35 802.52,-618.16 792.67,-622.05 797.24,-627.35"/>
</g>
<!-- p17 -->
<g id="node20" class="node">
<title>p17</title>
<ellipse fill="black" stroke="black" cx="715.38" cy="-710.6" rx="3.6" ry="3.6"/>
</g>
<!-- p17&#45;&gt;p19 -->
<g id="edge17" class="edge">
<title>p17&#45;&gt;p19</title>
<path fill="none" stroke="black" d="M717.16,-707.38C721.94,-701.43 735.24,-684.85 744.06,-673.87"/>
<polygon fill="black" stroke="black" points="746.99,-675.8 750.52,-665.81 741.53,-671.42 746.99,-675.8"/>
</g>
<!-- p18 -->
<g id="node21" class="node">
<title>p18</title>
<ellipse fill="black" stroke="black" cx="740.38" cy="-710.6" rx="3.6" ry="3.6"/>
</g>
<!-- p18&#45;&gt;p19 -->
<g id="edge18" class="edge">
<title>p18&#45;&gt;p19</title>
<path fill="none" stroke="black" d="M741.09,-706.85C742.63,-700.95 746.33,-686.71 749.08,-676.16"/>
<polygon fill="black" stroke="black" points="752.55,-676.73 751.68,-666.17 745.77,-674.97 752.55,-676.73"/>
</g>
<!-- p22 -->
<g id="node23" class="node">
<title>p22</title>
<ellipse fill="black" stroke="black" cx="459.38" cy="-513" rx="1.8" ry="1.8"/>
</g>
<!-- p20&#45;&gt;p22 -->
<g id="edge20" class="edge">
<title>p20&#45;&gt;p22</title>
<path fill="none" stroke="black" d="M664.42,-585.24C627.32,-580.16 588.18,-573.28 552.38,-564 513.95,-554.04 499.51,-556.84 469.38,-531 467.26,-529.19 465.49,-526.82 464.04,-524.42"/>
<polygon fill="black" stroke="black" points="467.1,-522.69 459.73,-515.08 460.74,-525.63 467.1,-522.69"/>
</g>
<!-- p26 -->
<g id="node24" class="node">
<title>p26</title>
<ellipse fill="none" stroke="black" cx="507.38" cy="-513" rx="3.5" ry="3.5"/>
<text text-anchor="middle" x="492.88" y="-520.3" font-family="Times,serif" font-size="14.00">join</text>
</g>
<!-- p20&#45;&gt;p26 -->
<g id="edge21" class="edge">
<title>p20&#45;&gt;p26</title>
<path fill="none" stroke="black" d="M661.4,-585.33C612.75,-575.5 561.19,-558.91 519.38,-531 517.13,-529.5 515.17,-527.43 513.53,-525.24"/>
<polygon fill="black" stroke="black" points="516.43,-523.28 508.38,-516.4 510.39,-526.81 516.43,-523.28"/>
</g>
<!-- p23 -->
<g id="node25" class="node">
<title>p23</title>
<ellipse fill="none" stroke="black" cx="822.38" cy="-513" rx="293.55" ry="18"/>
<text text-anchor="middle" x="822.38" y="-509.3" font-family="Times,serif" font-size="14.00">articNcovNanopore:sequenceAnalysisNanopolish:articRemoveUnmappedReads</text>
</g>
<!-- p20&#45;&gt;p23 -->
<g id="edge22" class="edge">
<title>p20&#45;&gt;p23</title>
<path fill="none" stroke="black" d="M822.38,-581.8C822.38,-570.16 822.38,-554.55 822.38,-541.24"/>
<polygon fill="black" stroke="black" points="825.88,-541.18 822.38,-531.18 818.88,-541.18 825.88,-541.18"/>
</g>
<!-- p45 -->
<g id="node26" class="node">
<title>p45</title>
<ellipse fill="none" stroke="black" cx="1425.38" cy="-513" rx="244.26" ry="18"/>
<text text-anchor="middle" x="1425.38" y="-509.3" font-family="Times,serif" font-size="14.00">articNcovNanopore:sequenceAnalysisNanopolish:pangolinTyping</text>
</g>
<!-- p20&#45;&gt;p45 -->
<g id="edge23" class="edge">
<title>p20&#45;&gt;p45</title>
<path fill="none" stroke="black" d="M998.8,-586.17C1059.11,-580.72 1126.85,-573.4 1188.38,-564 1242.11,-555.79 1302.01,-543.12 1348.14,-532.59"/>
<polygon fill="black" stroke="black" points="1349.1,-535.96 1358.07,-530.31 1347.54,-529.14 1349.1,-535.96"/>
</g>
<!-- p21 -->
<g id="node27" class="node">
<title>p21</title>
<ellipse fill="black" stroke="black" cx="1136.38" cy="-513" rx="1.8" ry="1.8"/>
</g>
<!-- p20&#45;&gt;p21 -->
<g id="edge24" class="edge">
<title>p20&#45;&gt;p21</title>
<path fill="none" stroke="black" d="M987.97,-585.54C1035.48,-575.66 1085.24,-558.97 1125.38,-531 1127.91,-529.24 1130,-526.68 1131.65,-524.09"/>
<polygon fill="black" stroke="black" points="1134.94,-525.33 1136.11,-514.8 1128.63,-522.3 1134.94,-525.33"/>
<text text-anchor="middle" x="1137.38" y="-552.8" font-family="Times,serif" font-size="14.00">ch_nanopore_vcf</text>
</g>
<!-- p46 -->
<g id="node48" class="node">
<title>p46</title>
<ellipse fill="none" stroke="black" cx="1934.38" cy="-513" rx="221.76" ry="18"/>
<text text-anchor="middle" x="1934.38" y="-509.3" font-family="Times,serif" font-size="14.00">articNcovNanopore:sequenceAnalysisNanopolish:nextclade</text>
</g>
<!-- p20&#45;&gt;p46 -->
<g id="edge48" class="edge">
<title>p20&#45;&gt;p46</title>
<path fill="none" stroke="black" d="M993.69,-585.91C1204.68,-569.78 1560.64,-542.57 1768.91,-526.65"/>
<polygon fill="black" stroke="black" points="1769.32,-530.13 1779.03,-525.87 1768.79,-523.15 1769.32,-530.13"/>
</g>
<!-- p26&#45;&gt;p28 -->
<g id="edge27" class="edge">
<title>p26&#45;&gt;p28</title>
<path fill="none" stroke="black" d="M506.46,-509.33C504.38,-503.3 498.99,-488.18 493.38,-476 491.97,-472.94 490.31,-469.7 488.71,-466.72"/>
<polygon fill="black" stroke="black" points="491.69,-464.87 483.76,-457.85 485.58,-468.29 491.69,-464.87"/>
</g>
<!-- p24 -->
<g id="node28" class="node">
<title>p24</title>
<ellipse fill="black" stroke="black" cx="822.38" cy="-454.5" rx="1.8" ry="1.8"/>
</g>
<!-- p23&#45;&gt;p24 -->
<g id="edge25" class="edge">
<title>p23&#45;&gt;p24</title>
<path fill="none" stroke="black" d="M822.38,-494.74C822.38,-485.65 822.38,-474.77 822.38,-466.77"/>
<polygon fill="black" stroke="black" points="825.88,-466.5 822.38,-456.5 818.88,-466.5 825.88,-466.5"/>
</g>
<!-- p52 -->
<g id="node47" class="node">
<title>p52</title>
<ellipse fill="none" stroke="black" cx="1425.38" cy="-454.5" rx="3.5" ry="3.5"/>
<text text-anchor="middle" x="1397.88" y="-461.8" font-family="Times,serif" font-size="14.00">combine</text>
</g>
<!-- p45&#45;&gt;p52 -->
<g id="edge47" class="edge">
<title>p45&#45;&gt;p52</title>
<path fill="none" stroke="black" d="M1425.38,-494.74C1425.38,-486.16 1425.38,-475.97 1425.38,-468.12"/>
<polygon fill="black" stroke="black" points="1428.88,-468.06 1425.38,-458.06 1421.88,-468.06 1428.88,-468.06"/>
</g>
<!-- p25 -->
<g id="node29" class="node">
<title>p25</title>
<ellipse fill="black" stroke="black" cx="484.38" cy="-600" rx="3.6" ry="3.6"/>
</g>
<!-- p25&#45;&gt;p26 -->
<g id="edge26" class="edge">
<title>p25&#45;&gt;p26</title>
<path fill="none" stroke="black" d="M485.14,-596.17C488.06,-585.39 498.59,-546.45 504.05,-526.29"/>
<polygon fill="black" stroke="black" points="507.44,-527.15 506.68,-516.58 500.69,-525.32 507.44,-527.15"/>
</g>
<!-- p27 -->
<g id="node30" class="node">
<title>p27</title>
<ellipse fill="black" stroke="black" cx="482.38" cy="-513" rx="3.6" ry="3.6"/>
</g>
<!-- p27&#45;&gt;p28 -->
<g id="edge28" class="edge">
<title>p27&#45;&gt;p28</title>
<path fill="none" stroke="black" d="M482.38,-509.27C482.38,-501.99 482.38,-481.71 482.38,-468.25"/>
<polygon fill="black" stroke="black" points="485.88,-468.07 482.38,-458.07 478.88,-468.07 485.88,-468.07"/>
</g>
<!-- p31 -->
<g id="node32" class="node">
<title>p31</title>
<ellipse fill="none" stroke="black" cx="495.38" cy="-337.5" rx="3.5" ry="3.5"/>
<text text-anchor="middle" x="469.38" y="-344.8" font-family="Times,serif" font-size="14.00">splitCsv</text>
</g>
<!-- p29&#45;&gt;p31 -->
<g id="edge30" class="edge">
<title>p29&#45;&gt;p31</title>
<path fill="none" stroke="black" d="M486.35,-377.74C488.35,-369.05 490.72,-358.72 492.54,-350.84"/>
<polygon fill="black" stroke="black" points="495.96,-351.59 494.79,-341.06 489.13,-350.02 495.96,-351.59"/>
</g>
<!-- p30 -->
<g id="node33" class="node">
<title>p30</title>
<ellipse fill="black" stroke="black" cx="470.38" cy="-337.5" rx="1.8" ry="1.8"/>
</g>
<!-- p29&#45;&gt;p30 -->
<g id="edge31" class="edge">
<title>p29&#45;&gt;p30</title>
<path fill="none" stroke="black" d="M478.71,-377.74C476.76,-368.54 474.41,-357.5 472.71,-349.47"/>
<polygon fill="black" stroke="black" points="476.09,-348.56 470.59,-339.5 469.24,-350.01 476.09,-348.56"/>
</g>
<!-- p32 -->
<g id="node34" class="node">
<title>p32</title>
<ellipse fill="none" stroke="black" cx="495.38" cy="-293.5" rx="3.5" ry="3.5"/>
<text text-anchor="middle" x="473.38" y="-300.8" font-family="Times,serif" font-size="14.00">unique</text>
</g>
<!-- p31&#45;&gt;p32 -->
<g id="edge32" class="edge">
<title>p31&#45;&gt;p32</title>
<path fill="none" stroke="black" d="M495.38,-333.74C495.38,-328.47 495.38,-316.63 495.38,-307.32"/>
<polygon fill="black" stroke="black" points="498.88,-307.32 495.38,-297.32 491.88,-307.32 498.88,-307.32"/>
</g>
<!-- p33 -->
<g id="node35" class="node">
<title>p33</title>
<ellipse fill="none" stroke="black" cx="495.38" cy="-249.5" rx="3.5" ry="3.5"/>
<text text-anchor="middle" x="473.38" y="-256.8" font-family="Times,serif" font-size="14.00">branch</text>
</g>
<!-- p32&#45;&gt;p33 -->
<g id="edge33" class="edge">
<title>p32&#45;&gt;p33</title>
<path fill="none" stroke="black" d="M495.38,-289.74C495.38,-284.47 495.38,-272.63 495.38,-263.32"/>
<polygon fill="black" stroke="black" points="498.88,-263.32 495.38,-253.32 491.88,-263.32 498.88,-263.32"/>
</g>
<!-- p34 -->
<g id="node36" class="node">
<title>p34</title>
<ellipse fill="none" stroke="black" cx="495.38" cy="-205.4" rx="3.5" ry="3.5"/>
<text text-anchor="middle" x="473.88" y="-212.7" font-family="Times,serif" font-size="14.00">concat</text>
</g>
<!-- p33&#45;&gt;p34 -->
<g id="edge34" class="edge">
<title>p33&#45;&gt;p34</title>
<path fill="none" stroke="black" d="M492.75,-247.1C488.85,-242.56 487.72,-227.92 489.35,-217.5"/>
<polygon fill="black" stroke="black" points="492.72,-218.44 492.7,-207.85 486.11,-216.14 492.72,-218.44"/>
</g>
<!-- p33&#45;&gt;p34 -->
<g id="edge35" class="edge">
<title>p33&#45;&gt;p34</title>
<path fill="none" stroke="black" d="M498.01,-247.1C501.9,-242.56 503.03,-227.92 501.41,-217.5"/>
<polygon fill="black" stroke="black" points="504.64,-216.14 498.05,-207.85 498.03,-218.44 504.64,-216.14"/>
</g>
<!-- p35 -->
<g id="node37" class="node">
<title>p35</title>
<ellipse fill="none" stroke="black" cx="461.38" cy="-161.2" rx="3.5" ry="3.5"/>
<text text-anchor="middle" x="439.88" y="-168.5" font-family="Times,serif" font-size="14.00">concat</text>
</g>
<!-- p33&#45;&gt;p35 -->
<g id="edge36" class="edge">
<title>p33&#45;&gt;p35</title>
<path fill="none" stroke="black" d="M494.4,-246.01C490.28,-235.57 474.26,-194.89 466.14,-174.3"/>
<polygon fill="black" stroke="black" points="469.35,-172.89 462.43,-164.87 462.84,-175.46 469.35,-172.89"/>
</g>
<!-- p38 -->
<g id="node40" class="node">
<title>p38</title>
<ellipse fill="none" stroke="black" cx="750.38" cy="-205.4" rx="3.5" ry="3.5"/>
<text text-anchor="middle" x="734.38" y="-212.7" font-family="Times,serif" font-size="14.00">map</text>
</g>
<!-- p33&#45;&gt;p38 -->
<g id="edge40" class="edge">
<title>p33&#45;&gt;p38</title>
<path fill="none" stroke="black" d="M498.6,-247.97C523.69,-243.83 687.97,-216.7 736.75,-208.65"/>
<polygon fill="black" stroke="black" points="737.58,-212.06 746.87,-206.98 736.44,-205.15 737.58,-212.06"/>
</g>
<!-- p34&#45;&gt;p35 -->
<g id="edge37" class="edge">
<title>p34&#45;&gt;p35</title>
<path fill="none" stroke="black" d="M493.55,-202.13C489.08,-196.58 477.38,-182.07 469.4,-172.15"/>
<polygon fill="black" stroke="black" points="472.05,-169.87 463.05,-164.28 466.6,-174.26 472.05,-169.87"/>
</g>
<!-- p36 -->
<g id="node38" class="node">
<title>p36</title>
<ellipse fill="none" stroke="black" cx="297.38" cy="-117.1" rx="3.5" ry="3.5"/>
<text text-anchor="middle" x="277.88" y="-124.4" font-family="Times,serif" font-size="14.00">toList</text>
</g>
<!-- p35&#45;&gt;p36 -->
<g id="edge38" class="edge">
<title>p35&#45;&gt;p36</title>
<path fill="none" stroke="black" d="M458.25,-159.4C439.87,-154.68 345.56,-130.47 310.52,-121.47"/>
<polygon fill="black" stroke="black" points="311.37,-118.08 300.81,-118.98 309.63,-124.86 311.37,-118.08"/>
</g>
<!-- p37 -->
<g id="node39" class="node">
<title>p37</title>
<ellipse fill="none" stroke="black" cx="270.38" cy="-58.6" rx="270.25" ry="18"/>
<text text-anchor="middle" x="270.38" y="-54.9" font-family="Times,serif" font-size="14.00">articNcovNanopore:sequenceAnalysisNanopolish:writeQCSummaryCSV</text>
</g>
<!-- p36&#45;&gt;p37 -->
<g id="edge39" class="edge">
<title>p36&#45;&gt;p37</title>
<path fill="none" stroke="black" d="M296.22,-113.67C293.87,-108.75 288.31,-97.13 282.95,-85.91"/>
<polygon fill="black" stroke="black" points="286.04,-84.26 278.57,-76.74 279.72,-87.28 286.04,-84.26"/>
</g>
<!-- p40 -->
<g id="node41" class="node">
<title>p40</title>
<ellipse fill="none" stroke="black" cx="784.38" cy="-161.2" rx="3.5" ry="3.5"/>
<text text-anchor="middle" x="769.88" y="-168.5" font-family="Times,serif" font-size="14.00">join</text>
</g>
<!-- p38&#45;&gt;p40 -->
<g id="edge41" class="edge">
<title>p38&#45;&gt;p40</title>
<path fill="none" stroke="black" d="M752.2,-202.13C756.67,-196.58 768.37,-182.07 776.36,-172.15"/>
<polygon fill="black" stroke="black" points="779.15,-174.26 782.7,-164.28 773.7,-169.87 779.15,-174.26"/>
</g>
<!-- p42 -->
<g id="node43" class="node">
<title>p42</title>
<ellipse fill="none" stroke="black" cx="784.38" cy="-117.1" rx="3.5" ry="3.5"/>
<text text-anchor="middle" x="769.88" y="-124.4" font-family="Times,serif" font-size="14.00">join</text>
</g>
<!-- p40&#45;&gt;p42 -->
<g id="edge43" class="edge">
<title>p40&#45;&gt;p42</title>
<path fill="none" stroke="black" d="M784.38,-157.44C784.38,-152.15 784.38,-140.28 784.38,-130.95"/>
<polygon fill="black" stroke="black" points="787.88,-130.93 784.38,-120.93 780.88,-130.93 787.88,-130.93"/>
</g>
<!-- p39 -->
<g id="node42" class="node">
<title>p39</title>
<ellipse fill="black" stroke="black" cx="784.38" cy="-205.4" rx="3.6" ry="3.6"/>
</g>
<!-- p39&#45;&gt;p40 -->
<g id="edge42" class="edge">
<title>p39&#45;&gt;p40</title>
<path fill="none" stroke="black" d="M784.38,-201.63C784.38,-196.33 784.38,-184.43 784.38,-175.08"/>
<polygon fill="black" stroke="black" points="787.88,-175.03 784.38,-165.03 780.88,-175.03 787.88,-175.03"/>
</g>
<!-- p43 -->
<g id="node45" class="node">
<title>p43</title>
<ellipse fill="none" stroke="black" cx="800.38" cy="-58.6" rx="241.56" ry="18"/>
<text text-anchor="middle" x="800.38" y="-54.9" font-family="Times,serif" font-size="14.00">articNcovNanopore:sequenceAnalysisNanopolish:collateSamples</text>
</g>
<!-- p42&#45;&gt;p43 -->
<g id="edge45" class="edge">
<title>p42&#45;&gt;p43</title>
<path fill="none" stroke="black" d="M785.15,-113.37C786.56,-108.38 789.71,-97.27 792.78,-86.44"/>
<polygon fill="black" stroke="black" points="796.16,-87.33 795.52,-76.75 789.43,-85.42 796.16,-87.33"/>
</g>
<!-- p41 -->
<g id="node44" class="node">
<title>p41</title>
<ellipse fill="black" stroke="black" cx="759.38" cy="-161.2" rx="3.6" ry="3.6"/>
</g>
<!-- p41&#45;&gt;p42 -->
<g id="edge44" class="edge">
<title>p41&#45;&gt;p42</title>
<path fill="none" stroke="black" d="M761.02,-157.44C764.36,-151.8 772.14,-138.71 777.8,-129.17"/>
<polygon fill="black" stroke="black" points="780.85,-130.88 782.95,-120.5 774.84,-127.31 780.85,-130.88"/>
</g>
<!-- p44 -->
<g id="node46" class="node">
<title>p44</title>
<ellipse fill="black" stroke="black" cx="800.38" cy="-1.8" rx="1.8" ry="1.8"/>
</g>
<!-- p43&#45;&gt;p44 -->
<g id="edge46" class="edge">
<title>p43&#45;&gt;p44</title>
<path fill="none" stroke="black" d="M800.38,-40.56C800.38,-31.87 800.38,-21.56 800.38,-13.9"/>
<polygon fill="black" stroke="black" points="803.88,-13.76 800.38,-3.76 796.88,-13.76 803.88,-13.76"/>
</g>
<!-- p53 -->
<g id="node54" class="node">
<title>p53</title>
<ellipse fill="none" stroke="black" cx="1425.38" cy="-396" rx="231.26" ry="18"/>
<text text-anchor="middle" x="1425.38" y="-392.3" font-family="Times,serif" font-size="14.00">articNcovNanopore:sequenceAnalysisNanopolish:makeReport</text>
</g>
<!-- p52&#45;&gt;p53 -->
<g id="edge53" class="edge">
<title>p52&#45;&gt;p53</title>
<path fill="none" stroke="black" d="M1425.38,-450.77C1425.38,-445.83 1425.38,-434.9 1425.38,-424.17"/>
<polygon fill="black" stroke="black" points="1428.88,-424.15 1425.38,-414.15 1421.88,-424.15 1428.88,-424.15"/>
</g>
<!-- p47 -->
<g id="node49" class="node">
<title>p47</title>
<ellipse fill="black" stroke="black" cx="1934.38" cy="-454.5" rx="1.8" ry="1.8"/>
</g>
<!-- p46&#45;&gt;p47 -->
<g id="edge49" class="edge">
<title>p46&#45;&gt;p47</title>
<path fill="none" stroke="black" d="M1934.38,-494.74C1934.38,-485.65 1934.38,-474.77 1934.38,-466.77"/>
<polygon fill="black" stroke="black" points="1937.88,-466.5 1934.38,-456.5 1930.88,-466.5 1937.88,-466.5"/>
</g>
<!-- p48 -->
<g id="node50" class="node">
<title>p48</title>
<ellipse fill="none" stroke="black" cx="1230.38" cy="-1119.4" rx="263.75" ry="18"/>
<text text-anchor="middle" x="1230.38" y="-1115.7" font-family="Times,serif" font-size="14.00">articNcovNanopore:sequenceAnalysisNanopolish:getVariantDefinitions</text>
</g>
<!-- p49 -->
<g id="node51" class="node">
<title>p49</title>
<ellipse fill="black" stroke="black" cx="1230.38" cy="-1046.9" rx="1.8" ry="1.8"/>
</g>
<!-- p48&#45;&gt;p49 -->
<g id="edge50" class="edge">
<title>p48&#45;&gt;p49</title>
<path fill="none" stroke="black" d="M1230.38,-1101.33C1230.38,-1088.19 1230.38,-1070.39 1230.38,-1059.03"/>
<polygon fill="black" stroke="black" points="1233.88,-1058.72 1230.38,-1048.72 1226.88,-1058.72 1233.88,-1058.72"/>
</g>
<!-- p50 -->
<g id="node52" class="node">
<title>p50</title>
<ellipse fill="black" stroke="black" cx="1691.38" cy="-513" rx="3.6" ry="3.6"/>
</g>
<!-- p50&#45;&gt;p52 -->
<g id="edge51" class="edge">
<title>p50&#45;&gt;p52</title>
<path fill="none" stroke="black" d="M1690.26,-509.55C1688.4,-505.75 1684.25,-498.49 1678.38,-495 1637.16,-470.5 1485.76,-459.24 1439.14,-456.31"/>
<polygon fill="black" stroke="black" points="1439.13,-452.8 1428.94,-455.69 1438.71,-459.79 1439.13,-452.8"/>
</g>
<!-- p51 -->
<g id="node53" class="node">
<title>p51</title>
<ellipse fill="black" stroke="black" cx="1159.38" cy="-513" rx="3.6" ry="3.6"/>
</g>
<!-- p51&#45;&gt;p52 -->
<g id="edge52" class="edge">
<title>p51&#45;&gt;p52</title>
<path fill="none" stroke="black" d="M1160.49,-509.55C1162.35,-505.75 1166.5,-498.49 1172.38,-495 1213.59,-470.5 1364.99,-459.24 1411.62,-456.31"/>
<polygon fill="black" stroke="black" points="1412.04,-459.79 1421.81,-455.69 1411.62,-452.8 1412.04,-459.79"/>
</g>
<!-- p54 -->
<g id="node55" class="node">
<title>p54</title>
<ellipse fill="none" stroke="black" cx="1425.38" cy="-337.5" rx="3.5" ry="3.5"/>
<text text-anchor="middle" x="1392.88" y="-344.8" font-family="Times,serif" font-size="14.00">collectFile</text>
</g>
<!-- p53&#45;&gt;p54 -->
<g id="edge54" class="edge">
<title>p53&#45;&gt;p54</title>
<path fill="none" stroke="black" d="M1425.38,-377.74C1425.38,-369.16 1425.38,-358.97 1425.38,-351.12"/>
<polygon fill="black" stroke="black" points="1428.88,-351.06 1425.38,-341.06 1421.88,-351.06 1428.88,-351.06"/>
</g>
<!-- p55 -->
<g id="node56" class="node">
<title>p55</title>
<ellipse fill="black" stroke="black" cx="1425.38" cy="-293.5" rx="1.8" ry="1.8"/>
</g>
<!-- p54&#45;&gt;p55 -->
<g id="edge55" class="edge">
<title>p54&#45;&gt;p55</title>
<path fill="none" stroke="black" d="M1425.38,-333.74C1425.38,-328.19 1425.38,-315.36 1425.38,-305.87"/>
<polygon fill="black" stroke="black" points="1428.88,-305.8 1425.38,-295.8 1421.88,-305.8 1428.88,-305.8"/>
</g>
</g>
</svg>
